<svg xmlns="http://www.w3.org/2000/svg" xmlns:xlink="http://www.w3.org/1999/xlink" width="663.93" height="373.716" viewBox="0 0 663.93 373.716">
  <defs>
    <linearGradient id="linear-gradient" x1="0.041" y1="1.15" x2="1.102" y2="-0.077" gradientUnits="objectBoundingBox">
      <stop offset="0" stop-color="#e7e7e7"/>
      <stop offset="1" stop-color="#4463cc"/>
    </linearGradient>
  </defs>
  <g id="Group_332" data-name="Group 332" transform="translate(-69 -329.688)">
    <g id="Group_356" data-name="Group 356">
      <path id="Path_10" data-name="Path 10" d="M724.778,262.474c-16.843-23.446-51.035-35.016-53.339-71.056-.873-13.648,8.212-25,3.4-38.225-32.284-88.721-165.6-21.78-223.475-.474-24.1,8.871-52.959,18.832-79.254,18.714-30.271-.136-58.959-14.586-88.987-16.325a70.365,70.365,0,0,0-25.793,3.131c-29.852,9.58-55.258,42.131-63.912,77.521-7.015,28.689,4.484,56.282-7.192,84.566-12.445,30.146-38.445,51.771-43.85,86.22-6.488,41.347,25.9,75.8,59.215,75.6,21.207-.126,60.321-5.347,77.754-20.235,21.227-18.128,42.715-20.114,68.281-20.461,48.656-.66,97.729,9.287,146.041,15.841,41.4,5.616,82.343,14.737,124.062,14.453,30.639-.208,56.624-.784,71.758-37.5C707.576,390.376,760.11,311.656,724.778,262.474Z" transform="translate(-21.539 221.251)" opacity="0.5" fill="url(#linear-gradient)"/>
      <g id="Group_330" data-name="Group 330">
        <path id="Path_11" data-name="Path 11" d="M693.567,282.872c-11.434-15.316-38.071-15.726-54.625-24.031-30.565-15.333-3.927-44.128-13.158-68.45-7.454-19.632-30.319-37.709-53.334-33.211-16.294,3.185-29.632,12.785-44.337,19.509-14.173,6.479-29.628,10.7-44.774,14.612-33.354,8.62-68.259,14.428-102.894,14.334-26.887-.073-52.349-12.372-79.018-13.813a64.915,64.915,0,0,0-22.915,2.71c-26.529,8.223-49.141,36.054-56.878,66.286-6.271,24.507,3.9,48.052-6.508,72.22-11.1,25.759-34.221,44.261-39.071,73.685-5.821,35.315,22.9,64.691,52.49,64.475,18.837-.138,53.587-4.652,69.092-17.389,18.88-15.51,37.969-17.236,60.678-17.569,43.219-.632,86.792,7.792,129.7,13.32,36.763,4.737,73.118,12.467,110.176,12.166,27.214-.221,50.3-.75,63.791-32.12C678.1,392.111,724.878,324.819,693.567,282.872Z" transform="translate(-24.772 202.515)" fill="#fff"/>
        <g id="Group_329" data-name="Group 329" transform="translate(75.045 264.672)">
          <g id="Background_Complete" data-name="Background Complete" transform="translate(32.955 157.27)">
            <path id="Path_390" data-name="Path 390" d="M712.15,249.588l-5.606-9.762-8.778,1.29-7.247-9.108,3.735-9.067-9.787-6.5-7.307,7.368-9.622-1.686-3.9-11.317-11.695,1.234-.662,9.9-8.714,4.427-9.224-6.53-9.356,6.815,4.862,10.477-5.568,8.389-10.116-.538-2.642,12.479,9.626,3.7.829,10.485L611,277.379l4.77,10.819,10.328-1.6,6.843,7.9-3.579,9.843,9.461,6.682,7.384-7.989,10.245,2.771,3.187,10.574,11.386-.769,1.469-9.5,9.762-5.6,7.987,6.375,10.1-7.529-5.107-8.894,4.978-8.915,10.24.754,3.141-11.611-8.791-4.76-1.169-10.578Zm-39.66,34.165a23.014,23.014,0,1,1,8.5-31.417A23.014,23.014,0,0,1,672.49,283.753Z" transform="translate(-88.66 -171.301)" fill="#fff"/>
            <g id="Group_144" data-name="Group 144" transform="translate(-39 70.662)">
              <g id="Group_118" data-name="Group 118">
                <g id="Group_117" data-name="Group 117">
                  <g id="Group_116" data-name="Group 116">
                    <g id="Group_115" data-name="Group 115">
                      <path id="Path_391" data-name="Path 391" d="M123.214,368.3c17.309-14.957,19.046-39.585,16.064-61.254-.5-3.617-.493-7.485-2.548-10.492s-6.309-4.766-9.4-2.9c-2.565,1.548-3.416,4.8-4.657,7.553A21.347,21.347,0,0,1,115,310.217c-2.187,1.438-4.972,2.466-7.384,1.443-3.309-1.4-4.124-5.691-4.474-9.3q-.977-10.1-1.956-20.2c-.35-3.612-.719-7.3-2.2-10.61S94.7,265.31,91.17,264.7s-7.577,1.81-7.938,5.419a33.6,33.6,0,0,0,.361,4.506c.054,1.509-.473,3.239-1.853,3.8-1.4.573-2.947-.3-4.136-1.248-4.1-3.26-7.115-7.7-9.96-12.121s-5.632-8.97-9.423-12.6-8.792-6.294-13.992-6.054-10.38,4-11.163,9.21c-.785,5.225,2.717,10.083,6.373,13.869a81.022,81.022,0,0,0,18.429,14.263,6.666,6.666,0,0,1,3.117,2.728c1.033,2.327-1,4.952-3.3,5.989-2.6,1.174-5.547,1.2-8.327,1.817s-5.7,2.178-6.493,4.948c-1.1,3.843,2.387,7.392,5.685,9.612A69.4,69.4,0,0,0,70.2,318.531c2.756.7,5.639,1.262,7.973,2.907s3.961,4.756,2.93,7.433-4.269,3.836-7.1,3.606-5.48-1.483-8.234-2.209c-5.154-1.361-11.526-.358-14.262,4.258-1.8,3.033-1.577,6.977-.173,10.227a26.484,26.484,0,0,0,6.394,8.358c8.914,8.509,19.868,14.969,31.789,17.772s22.7,2.784,33.7-2.58" transform="translate(-32.955 -246.395)" fill="#fff"/>
                    </g>
                  </g>
                </g>
              </g>
              <g id="Group_123" data-name="Group 123" transform="translate(4.816 3.734)">
                <g id="Group_122" data-name="Group 122">
                  <g id="Group_121" data-name="Group 121">
                    <g id="Group_120" data-name="Group 120">
                      <g id="Group_119" data-name="Group 119">
                        <path id="Path_392" data-name="Path 392" d="M125.676,384.794a159.367,159.367,0,0,0-8.968-29.145,325.089,325.089,0,0,0-16.434-33.5l-4.759-8.56c-1.568-2.806-3.124-5.589-4.812-8.217A162.355,162.355,0,0,0,80.13,290.825c-3.587-4.464-7.153-8.568-10.516-12.382s-6.581-7.3-9.643-10.356a128.883,128.883,0,0,0-15.5-13.334c-1.947-1.426-3.493-2.482-4.551-3.183l-1.208-.791a2.79,2.79,0,0,0-.424-.25,2.538,2.538,0,0,0,.386.307l1.17.846c1.032.737,2.553,1.827,4.474,3.283A136.252,136.252,0,0,1,59.64,268.426c3.031,3.069,6.214,6.569,9.562,10.388s6.888,7.94,10.452,12.4a164.127,164.127,0,0,1,10.5,14.51c1.676,2.616,3.214,5.376,4.784,8.19l4.754,8.558a333.417,333.417,0,0,1,16.45,33.413,162.133,162.133,0,0,1,9.073,29" transform="translate(-38.285 -250.528)" fill="#e0e0e0"/>
                      </g>
                    </g>
                  </g>
                </g>
              </g>
              <g id="Group_128" data-name="Group 128" transform="translate(56.963 18.307)">
                <g id="Group_127" data-name="Group 127">
                  <g id="Group_126" data-name="Group 126">
                    <g id="Group_125" data-name="Group 125">
                      <g id="Group_124" data-name="Group 124">
                        <path id="Path_393" data-name="Path 393" d="M96.077,306.918a7.417,7.417,0,0,0,.193-1.577c.087-1.017.164-2.492.231-4.316.14-3.648.161-8.69.163-14.251s.095-10.591.289-14.226c.093-1.817.182-3.288.257-4.3a7.322,7.322,0,0,0,.041-1.588,7.141,7.141,0,0,0-.3,1.56c-.155,1.009-.316,2.478-.468,4.3-.317,3.64-.485,8.688-.486,14.256.012,5.486.023,10.451.032,14.244-.006,1.713-.014,3.157-.02,4.316A7.259,7.259,0,0,0,96.077,306.918Z" transform="translate(-95.998 -266.657)" fill="#e0e0e0"/>
                      </g>
                    </g>
                  </g>
                </g>
              </g>
              <g id="Group_133" data-name="Group 133" transform="translate(9.731 54.184)">
                <g id="Group_132" data-name="Group 132">
                  <g id="Group_131" data-name="Group 131">
                    <g id="Group_130" data-name="Group 130">
                      <g id="Group_129" data-name="Group 129">
                        <path id="Path_394" data-name="Path 394" d="M43.725,306.862a10.036,10.036,0,0,0,1.874.031c1.2-.017,2.941-.051,5.091-.023,4.3.02,10.235.257,16.774.8s12.437,1.316,16.685,1.988c2.128.32,3.843.626,5.029.83a10.047,10.047,0,0,0,1.858.258,10.014,10.014,0,0,0-1.807-.516c-1.173-.283-2.879-.661-5-1.044-4.241-.793-10.15-1.628-16.708-2.19a164.522,164.522,0,0,0-16.831-.606c-2.156.033-3.9.14-5.1.238A9.9,9.9,0,0,0,43.725,306.862Z" transform="translate(-43.725 -306.363)" fill="#e0e0e0"/>
                      </g>
                    </g>
                  </g>
                </g>
              </g>
              <g id="Group_138" data-name="Group 138" transform="translate(82.575 46.369)">
                <g id="Group_137" data-name="Group 137">
                  <g id="Group_136" data-name="Group 136">
                    <g id="Group_135" data-name="Group 135">
                      <g id="Group_134" data-name="Group 134">
                        <path id="Path_395" data-name="Path 395" d="M124.349,359.4a2.378,2.378,0,0,0,.259-.6c.168-.476.373-1.057.621-1.761.532-1.532,1.244-3.769,2.088-6.543,1.691-5.549,3.785-13.286,5.981-21.855s4.217-16.319,5.789-21.894c.773-2.712,1.409-4.941,1.881-6.6.2-.718.367-1.311.5-1.8a2.442,2.442,0,0,0,.132-.642,2.415,2.415,0,0,0-.26.6c-.168.475-.372,1.055-.621,1.759-.531,1.532-1.244,3.768-2.087,6.543-1.691,5.549-3.785,13.286-5.982,21.859s-4.216,16.315-5.788,21.892c-.774,2.71-1.41,4.941-1.882,6.6l-.5,1.8A2.369,2.369,0,0,0,124.349,359.4Z" transform="translate(-124.344 -297.714)" fill="#e0e0e0"/>
                      </g>
                    </g>
                  </g>
                </g>
              </g>
              <g id="Group_143" data-name="Group 143" transform="translate(18.852 94.535)">
                <g id="Group_142" data-name="Group 142">
                  <g id="Group_141" data-name="Group 141">
                    <g id="Group_140" data-name="Group 140">
                      <g id="Group_139" data-name="Group 139">
                        <path id="Path_396" data-name="Path 396" d="M53.819,351.031a2.469,2.469,0,0,0,.638.19l1.853.416,6.825,1.458c5.764,1.234,13.7,3.029,22.475,5.023s16.738,3.72,22.529,4.834c2.895.558,5.242.986,6.869,1.248.753.117,1.372.212,1.877.292a2.377,2.377,0,0,0,.662.055,2.583,2.583,0,0,0-.639-.19l-1.852-.415-6.825-1.458c-5.764-1.233-13.705-3.029-22.479-5.024s-16.735-3.719-22.526-4.833c-2.895-.558-5.242-.986-6.871-1.248l-1.876-.292A2.457,2.457,0,0,0,53.819,351.031Z" transform="translate(-53.819 -351.022)" fill="#e0e0e0"/>
                      </g>
                    </g>
                  </g>
                </g>
              </g>
            </g>
            <g id="Group_147" data-name="Group 147" transform="translate(463.416)">
              <path id="Path_397" data-name="Path 397" d="M606.558,190.361l-3.332-5.8-5.219.767-4.31-5.415,2.221-5.391-5.819-3.862-4.344,4.38-5.72-1-2.32-6.728-6.953.734-.394,5.886-5.18,2.631-5.485-3.883-5.563,4.052,2.891,6.229-3.311,4.988-6.014-.319-1.571,7.418,5.723,2.2.492,6.234-5.933,3.406,2.835,6.432,6.141-.953,4.068,4.695-2.128,5.852,5.625,3.973,4.39-4.75,6.091,1.648,1.895,6.287,6.769-.457.874-5.646,5.8-3.333,4.748,3.79,6.005-4.476-3.037-5.288,2.959-5.3,6.089.448,1.867-6.9-5.226-2.831-.7-6.289Zm-23.58,20.314A13.683,13.683,0,1,1,588.031,192,13.684,13.684,0,0,1,582.978,210.675Z" transform="translate(-545.866 -167.105)" fill="none"/>
              <g id="Group_145" data-name="Group 145" transform="translate(16.401 17.793)">
                <path id="Path_398" data-name="Path 398" d="M584.7,212.553a23.173,23.173,0,0,0,2.621-2.1,13.1,13.1,0,0,0,2.361-3.121,13.514,13.514,0,0,0-3.111-16.92,13.5,13.5,0,0,0-7.182-3.078A13.4,13.4,0,0,0,565.6,195.25a13.488,13.488,0,0,0-.962,7.756,13.552,13.552,0,0,0,13.046,11.217,13.073,13.073,0,0,0,3.884-.466,23.2,23.2,0,0,0,3.134-1.2.781.781,0,0,1-.186.121l-.571.317a6.221,6.221,0,0,1-.96.454,9.489,9.489,0,0,1-1.367.488,12.922,12.922,0,0,1-3.939.554,13.809,13.809,0,0,1-10.336-4.791,13.889,13.889,0,0,1-3.133-6.615,13.888,13.888,0,0,1,.968-8.017,13.822,13.822,0,0,1,14.264-8.189,13.882,13.882,0,0,1,7.41,3.2,13.894,13.894,0,0,1,4.134,6.04,13.815,13.815,0,0,1-1.072,11.34,12.921,12.921,0,0,1-2.464,3.124,9.7,9.7,0,0,1-1.11.935,6.4,6.4,0,0,1-.876.6l-.562.333A.818.818,0,0,1,584.7,212.553Z" transform="translate(-563.989 -186.776)" fill="#fff"/>
              </g>
              <g id="Group_146" data-name="Group 146">
                <path id="Path_399" data-name="Path 399" d="M606.529,190.34s-.1.077-.305.224-.536.373-.945.659l-3.776,2.6.031-.067.725,6.286-.052-.077,5.236,2.813.083.044-.024.092c-.557,2.084-1.181,4.411-1.849,6.909l-.03.11-.116-.008-6.089-.435.145-.078-2.948,5.306v-.163l3.045,5.283.078.135-.125.094-6,4.485-.116.086-.113-.089-4.754-3.784.219.016-5.8,3.34.1-.145c-.268,1.743-.566,3.679-.868,5.647l-.025.164-.167.012-6.768.463-.17.012-.05-.164-1.9-6.285.153.148-6.092-1.644.222-.063-4.387,4.752-.135.146-.163-.115-5.627-3.97-.144-.1.06-.165,2.126-5.852.042.231-4.069-4.695.212.079-6.141.954-.178.027-.073-.164-2.836-6.432-.085-.193.183-.106.127-.073,5.805-3.333-.117.222q-.248-3.139-.492-6.234l.149.2-5.723-2.2-.185-.071.042-.194q.8-3.753,1.573-7.418l.042-.193.2.011,6.014.323-.2.1,3.313-4.986-.017.219q-1.468-3.17-2.886-6.231l-.077-.164.146-.107,5.566-4.047.125-.09.126.089,5.481,3.888-.215-.016,5.184-2.627-.111.168c.138-2.025.271-3.976.4-5.885l.011-.165.164-.017,6.955-.725.147-.015.049.141,2.309,6.731-.136-.116,5.72,1.013-.146.046,4.353-4.372.089-.089.1.07,5.81,3.875.094.063-.043.1-2.235,5.385-.017-.121,4.29,5.43-.089-.036,5.222-.743.049-.006.024.042,2.489,4.418.6,1.073c.129.236.184.349.184.349s-.078-.118-.22-.355l-.633-1.07c-.564-.962-1.4-2.4-2.541-4.342l.072.035-5.215.791-.054.009-.035-.044-4.328-5.4-.044-.055.027-.067,2.206-5.4.051.166-5.827-3.848.193-.02-4.336,4.389-.061.061-.086-.014-5.722-.993-.1-.018-.034-.1c-.745-2.15-1.516-4.377-2.33-6.725l.2.125-6.952.743.174-.182c-.126,1.91-.253,3.861-.387,5.886l-.007.116-.1.052-5.178,2.637-.112.057-.1-.072-5.487-3.878.25,0-5.56,4.056.07-.27,2.895,6.227.052.114-.07.1-3.307,4.988-.071.108-.13-.006-6.015-.317.238-.182q-.775,3.666-1.569,7.42l-.145-.266,5.724,2.2.137.052.012.147q.245,3.094.493,6.234l.012.148-.129.074-5.805,3.334-.127.073.1-.3,2.835,6.432-.251-.137,6.141-.952.127-.02.085.1,4.067,4.7.089.1-.046.128c-.735,2.017-1.462,4.016-2.13,5.851l-.084-.267,5.624,3.976-.3.032,4.392-4.748.092-.1.131.035,6.09,1.652.117.033.035.117,1.889,6.288-.22-.152,6.769-.451-.192.176c.306-1.967.608-3.9.88-5.646l.014-.1.085-.049,5.807-3.325.116-.066.1.082,4.744,3.8-.228,0,6.011-4.468-.048.228-3.027-5.293-.046-.081.045-.081,2.969-5.294.048-.086.1.007,6.087.463-.145.1c.681-2.494,1.317-4.818,1.886-6.9l.059.136-5.217-2.847-.046-.025-.005-.052c-.261-2.464-.485-4.581-.667-6.291l0-.043.035-.023,3.789-2.511.977-.64C606.409,190.41,606.529,190.34,606.529,190.34Z" transform="translate(-545.837 -167.084)" fill="#fff"/>
              </g>
            </g>
          </g>
          <g id="Floor" transform="translate(56.587 368.999)">
            <g id="Group_148" data-name="Group 148" transform="translate(0)">
              <path id="Path_400" data-name="Path 400" d="M634.033,401.65c0,.129-128.711.235-287.448.235-158.792,0-287.476-.106-287.476-.235s128.684-.236,287.476-.236C505.322,401.414,634.033,401.52,634.033,401.65Z" transform="translate(-59.109 -401.414)" fill="#263238"/>
            </g>
          </g>
          <g id="Character_2" data-name="Character 2" transform="translate(310.802 133.971)">
            <g id="Group_213" data-name="Group 213">
              <g id="Group_149" data-name="Group 149" transform="translate(57.036 107.553)">
                <path id="Path_401" data-name="Path 401" d="M648.3,263.55l-49.72,124.3H459.038l44.331-125.995a2.282,2.282,0,0,1,2.154-1.524l140.665.091A2.281,2.281,0,0,1,648.3,263.55Z" transform="translate(-408.932 -260.331)" fill="#4a58b2"/>
                <path id="Path_402" data-name="Path 402" d="M641.329,267.675,595.674,379.041a1.3,1.3,0,0,1-1.21.8H467.338a1.276,1.276,0,0,1-1.228-1.7l40.449-111.366a1.3,1.3,0,0,1,1.228-.847H640.12A1.274,1.274,0,0,1,641.329,267.675Z" transform="translate(-409.607 -260.871)" fill="#e7e7e7"/>
                <path id="Path_403" data-name="Path 403" d="M593.236,400.741H403.584V392h184.5Z" transform="translate(-403.584 -273.03)" fill="#4a58b2"/>
              </g>
              <g id="Group_176" data-name="Group 176" transform="translate(0 67.677)">
                <g id="Group_158" data-name="Group 158" transform="translate(0 47.913)">
                  <g id="Group_151" data-name="Group 151">
                    <g id="Group_150" data-name="Group 150">
                      <path id="Path_404" data-name="Path 404" d="M443.149,269.226s-3.818,45.432-12.056,47.644c-22.407,6.019-48.041,1.564-57.042-.2-1.012-.868-2.176-1.92-3.49-3.223a14.081,14.081,0,0,1-2.75-3.879,21.971,21.971,0,0,1-2.051-5.6c-.214-1.828-2.485-2.437-3.286-.979s-1.143,7.012,1.881,12.064a2.392,2.392,0,0,1-1.648,3.242c-3.808,1.4-17.216,5.569-19.377,6.6-1.925.914-3.789,2.55-1.766,2.876s13.1-1.261,13.1-1.261-14.555,1.794-14.2,3.9c.248,1.455,4.169,2.15,13.676.006,0,0-11.98,1.569-13.232,2.825-2.829,2.836,11.6,1.091,11.6,1.091-10.1,1.311-10,.782-10.1,2.168-.08,1.037,2.2,1.455,7.751,1.522,4.5.055,9.15,1.011,16,1.467h0s86.6,24.5,98.514-13.612c6.422-20.546,6.462-28.364,8.682-41.831" transform="translate(-340.46 -269.226)" fill="#ffbe9d"/>
                    </g>
                  </g>
                  <g id="Group_153" data-name="Group 153" transform="translate(4.287 64.321)">
                    <g id="Group_152" data-name="Group 152">
                      <path id="Path_405" data-name="Path 405" d="M359.072,340.546c.039.253-3.044.784-6.885,1.185s-6.966.52-6.982.264,3.069-.786,6.886-1.185S359.033,340.293,359.072,340.546Z" transform="translate(-345.205 -340.413)" fill="#a36957"/>
                    </g>
                  </g>
                  <g id="Group_155" data-name="Group 155" transform="translate(3.379 60.438)">
                    <g id="Group_154" data-name="Group 154">
                      <path id="Path_406" data-name="Path 406" d="M358.88,336.2c.042.252-3.211,1-7.265,1.675s-7.374,1.015-7.415.762,3.209-1,7.264-1.675S358.837,335.946,358.88,336.2Z" transform="translate(-344.2 -336.116)" fill="#a36957"/>
                    </g>
                  </g>
                  <g id="Group_157" data-name="Group 157" transform="translate(4.079 56.358)">
                    <g id="Group_156" data-name="Group 156">
                      <path id="Path_407" data-name="Path 407" d="M358.834,331.681c.046.252-3.021,1.013-6.847,1.7s-6.965,1.041-7.012.789,3.021-1.013,6.848-1.7S358.788,331.429,358.834,331.681Z" transform="translate(-344.974 -331.6)" fill="#a36957"/>
                    </g>
                  </g>
                </g>
                <g id="Group_167" data-name="Group 167" transform="translate(99.595)">
                  <path id="Path_408" data-name="Path 408" d="M569.728,355.053l5.63,32.787H487.542l3.362-25.477Z" transform="translate(-454.24 -229.591)" fill="#263238"/>
                  <path id="Path_409" data-name="Path 409" d="M462.671,230.407s-12.764,38.338-11.948,39.871l28.1,6.516Z" transform="translate(-450.685 -217.569)" fill="#99a1d8"/>
                  <path id="Path_410" data-name="Path 410" d="M462.671,230.407s-12.764,38.338-11.948,39.871l28.1,6.516Z" transform="translate(-450.685 -217.569)" opacity="0.2"/>
                  <path id="Path_411" data-name="Path 411" d="M488.022,301.051l-2.756,54.875,84.835-9.6-13.279-53.04s-9.127-61.49-25.758-68.3a158.384,158.384,0,0,0-17.65-5.69,81.22,81.22,0,0,0-32.615-2.414l-1.709.22a18.214,18.214,0,0,0-15.143,11.944s-.3,18.887,5.507,31.391Z" transform="translate(-451.964 -216.199)" fill="#99a1d8"/>
                  <g id="Group_159" data-name="Group 159" transform="translate(55.66 137.272)">
                    <path id="Path_412" data-name="Path 412" d="M512.772,388.064c-.13,0-.319-4.46-.421-9.965s-.08-9.972.05-9.974.318,4.459.421,9.966S512.9,388.061,512.772,388.064Z" transform="translate(-512.287 -368.124)" fill="#455a64"/>
                  </g>
                  <g id="Group_160" data-name="Group 160" transform="translate(59.324 139.31)">
                    <path id="Path_413" data-name="Path 413" d="M517.832,370.857c-.015-.021.093-.145.368-.239a1.682,1.682,0,0,1,2.13,1.659,1.978,1.978,0,0,1-1.318,1.771,2.111,2.111,0,0,1-2.124-.595,2.034,2.034,0,0,1-.519-1.72c.187-1.049.835-1.4.841-1.348a3.576,3.576,0,0,0-.511,1.384,1.747,1.747,0,0,0,.5,1.382,1.722,1.722,0,0,0,1.671.448,1.581,1.581,0,0,0,1.029-1.347,1.291,1.291,0,0,0-.656-1.226A1.95,1.95,0,0,0,517.832,370.857Z" transform="translate(-516.341 -370.38)" fill="#455a64"/>
                  </g>
                  <g id="Group_161" data-name="Group 161" transform="translate(82.149 133.954)">
                    <path id="Path_414" data-name="Path 414" d="M576.337,375.651c.009.014-.106.1-.334.267s-.56.413-1.024.676a21.306,21.306,0,0,1-4.09,1.908,23.079,23.079,0,0,1-26.526-8.554,21.267,21.267,0,0,1-2.206-3.938c-.222-.484-.337-.885-.435-1.147a1.491,1.491,0,0,1-.116-.412,15.174,15.174,0,0,1,.718,1.483,24.236,24.236,0,0,0,2.309,3.819,23.982,23.982,0,0,0,4.595,4.726,22.576,22.576,0,0,0,15.065,4.858,24.362,24.362,0,0,0,10.595-2.9A15.75,15.75,0,0,1,576.337,375.651Z" transform="translate(-541.604 -364.452)" fill="#455a64"/>
                  </g>
                  <g id="Group_162" data-name="Group 162" transform="translate(15.806 37.201)">
                    <path id="Path_415" data-name="Path 415" d="M500.764,257.4a7.658,7.658,0,0,1-1.012.985,27.639,27.639,0,0,1-3.031,2.38,12.107,12.107,0,0,1-5.331,2.1,13.68,13.68,0,0,1-6.869-1.382c-2.283-1-4.333-2.165-6.331-2.885a11.351,11.351,0,0,0-5.488-.778,7.276,7.276,0,0,0-3.479,1.34c-.71.543-1.006.96-1.043.929-.013-.01.055-.116.2-.311a4.7,4.7,0,0,1,.731-.761,7.089,7.089,0,0,1,3.546-1.526,11.4,11.4,0,0,1,5.682.7c2.05.714,4.123,1.879,6.37,2.861a13.534,13.534,0,0,0,6.639,1.382,12.1,12.1,0,0,0,5.195-1.948,36.052,36.052,0,0,0,3.094-2.24A8.637,8.637,0,0,1,500.764,257.4Z" transform="translate(-468.178 -257.371)" fill="#fafafa"/>
                  </g>
                  <g id="Group_163" data-name="Group 163" transform="translate(12.377 15.761)">
                    <path id="Path_416" data-name="Path 416" d="M478.141,233.647a6.1,6.1,0,0,1-1.626,1.438,13.82,13.82,0,0,1-10.055,2.2,6.122,6.122,0,0,1-2.076-.628c.024-.078.817.149,2.123.3a15.571,15.571,0,0,0,9.828-2.148C477.46,234.124,478.087,233.587,478.141,233.647Z" transform="translate(-464.384 -233.643)" fill="#fafafa"/>
                  </g>
                  <g id="Group_164" data-name="Group 164" transform="translate(29.845 66.89)">
                    <path id="Path_417" data-name="Path 417" d="M556.709,290.795a4.611,4.611,0,0,1-.588.5,9.838,9.838,0,0,1-1.942,1.079,15.907,15.907,0,0,1-8.07.739,52.111,52.111,0,0,1-5.51-1.146,44.3,44.3,0,0,0-6.287-1.218,22.609,22.609,0,0,0-7,.5,45.374,45.374,0,0,0-7.2,2.4c-4.815,2-9.371,4.179-13.864,5.112a26.337,26.337,0,0,1-12.028-.307,61.571,61.571,0,0,1-7.747-2.491l-2.054-.819a4.736,4.736,0,0,1-.7-.319,4.887,4.887,0,0,1,.736.23l2.084.736a69.749,69.749,0,0,0,7.759,2.338,26.332,26.332,0,0,0,11.862.207c4.421-.941,8.94-3.11,13.776-5.123a45.043,45.043,0,0,1,7.281-2.417,22.851,22.851,0,0,1,7.142-.485,43.769,43.769,0,0,1,6.339,1.27,53.5,53.5,0,0,0,5.461,1.2,16.146,16.146,0,0,0,7.957-.579A12.81,12.81,0,0,0,556.709,290.795Z" transform="translate(-483.716 -290.229)" fill="#fafafa"/>
                  </g>
                  <g id="Group_165" data-name="Group 165" transform="translate(35.6 94.894)">
                    <path id="Path_418" data-name="Path 418" d="M490.086,327.383a.711.711,0,0,1,.119-.176l.387-.49a9.787,9.787,0,0,1,1.806-1.578,12.349,12.349,0,0,1,3.44-1.609,16.355,16.355,0,0,1,4.992-.614c3.778.061,8.038,1.624,12.5,3.611a71.587,71.587,0,0,0,7.125,2.821,21.616,21.616,0,0,0,8.041,1.121,19.042,19.042,0,0,0,7.687-2.544c2.332-1.266,4.469-2.712,6.63-3.894a22.166,22.166,0,0,1,6.516-2.545,16.854,16.854,0,0,1,13.977,3.837,12.139,12.139,0,0,1,2.173,2.382c-.006.005-.059-.045-.155-.146l-.417-.46a9.545,9.545,0,0,0-.7-.72,12.487,12.487,0,0,0-1.019-.916,17.106,17.106,0,0,0-7.822-3.617,16.576,16.576,0,0,0-5.963.024,21.939,21.939,0,0,0-6.38,2.54c-2.135,1.181-4.265,2.635-6.62,3.92a19.384,19.384,0,0,1-7.872,2.608,21.954,21.954,0,0,1-8.215-1.15,70.357,70.357,0,0,1-7.161-2.864c-4.45-2.007-8.639-3.574-12.338-3.675a16.333,16.333,0,0,0-4.91.535,12.516,12.516,0,0,0-3.41,1.507A12.686,12.686,0,0,0,490.086,327.383Z" transform="translate(-490.085 -321.222)" fill="#fafafa"/>
                  </g>
                  <g id="Group_166" data-name="Group 166" transform="translate(34.026 120.823)">
                    <path id="Path_419" data-name="Path 419" d="M566.54,359.1a15.328,15.328,0,0,0-1.6-2.919,14.51,14.51,0,0,0-7.354-5.037,17.526,17.526,0,0,0-6.162-.822,27.545,27.545,0,0,0-7.059,1.268,58.636,58.636,0,0,0-7.4,2.95c-2.513,1.169-5.08,2.471-7.787,3.656a42.113,42.113,0,0,1-8.18,2.757,30.768,30.768,0,0,1-8.027.526,46.934,46.934,0,0,1-13.216-3.077c-3.619-1.37-6.454-2.7-8.407-3.617-.976-.463-1.729-.832-2.236-1.089l-.576-.3a.728.728,0,0,1-.189-.116.772.772,0,0,1,.21.072l.6.253,2.272,1.008c1.974.868,4.826,2.147,8.445,3.471a47.544,47.544,0,0,0,13.129,2.956,30.591,30.591,0,0,0,7.905-.544,42.149,42.149,0,0,0,8.087-2.737c2.69-1.177,5.256-2.475,7.78-3.643a58.268,58.268,0,0,1,7.472-2.946,27.654,27.654,0,0,1,7.172-1.243,17.733,17.733,0,0,1,6.279.9,14.461,14.461,0,0,1,7.4,5.247,11.029,11.029,0,0,1,1.182,2.2l.212.614A.73.73,0,0,1,566.54,359.1Z" transform="translate(-488.344 -349.919)" fill="#fafafa"/>
                  </g>
                </g>
                <g id="Group_175" data-name="Group 175" transform="translate(76.904 7.386)">
                  <g id="Group_172" data-name="Group 172">
                    <g id="Group_168" data-name="Group 168" transform="translate(63.618 55.284)" opacity="0.2">
                      <path id="Path_420" data-name="Path 420" d="M502.618,360.8a39.44,39.44,0,0,0,23.818-8.773c9.018-7.611,13.477-19.554,14.467-31.314s-1.109-23.537-3.2-35.152a159.441,159.441,0,0,0-19.49,36.6c-3.2,8.528-6.01,17.847-13.1,23.568-2.527,2.041-5.545,3.564-7.521,6.142s-2.405,6.818.221,8.732l2.337.763" transform="translate(-495.982 -285.559)"/>
                    </g>
                    <g id="Group_171" data-name="Group 171">
                      <g id="Group_169" data-name="Group 169" transform="translate(0 31.863)">
                        <path id="Path_421" data-name="Path 421" d="M433.608,358.75a20.442,20.442,0,0,0,5.386,1.744,13.36,13.36,0,0,0,4.537.2q1.057-.138,2-.289a15.792,15.792,0,0,0,7.858-3.684c9.785-8.5,36.271-35.37,41-41.452,5.689-7.311,7.284-55.632,7.284-55.632l31.779,5.2s-.568,34.827-8.387,61.919c-4.973,17.232-65.076,52.683-65.128,52.714A166.071,166.071,0,0,1,447.4,392.219c-6.406,5.37-6.9,4.8-7.394,3.95-1.337-2.291,10.91-9.873,7.333-9.77s-13.9,11.015-15.2,8.565c-1.694-3.195,11.275-10.9,12.324-11.631,1.019-.712.026-2.274-.885-1.562-1.311,1.024-15.346,11.441-17.04,8.319-.939-1.73,2.326-3.128,2.326-3.128s13.849-8.779,13-10.226c-.862-1.469-9.167,3.412-11.851,5.256-2.652,1.822-4.6,1.3-4.428-.544.115-1.258,8.2-7.1,10.9-8.86s10.179-6.46,4.605-7.145-9.6-3.311-10.194-4.779S432.125,357.833,433.608,358.75Z" transform="translate(-425.573 -259.638)" fill="#ffbe9d"/>
                      </g>
                      <g id="Group_170" data-name="Group 170" transform="translate(70.545)">
                        <path id="Path_422" data-name="Path 422" d="M521.2,224.753a18.178,18.178,0,0,1,16.7,5.142c3.7,3.859,7.426,10.312,7.11,20.552-.616,19.976-2.194,26.789-2.194,26.789l-39.169-1.356,1.535-33.562S508.21,227.485,521.2,224.753Z" transform="translate(-503.648 -224.374)" fill="#99a1d8"/>
                        <path id="Path_423" data-name="Path 423" d="M521.2,224.753a18.178,18.178,0,0,1,16.7,5.142c3.7,3.859,7.483,10.82,7.168,21.06-.616,19.976-2.252,26.282-2.252,26.282l-39.169-1.356,1.593-33.055S508.21,227.485,521.2,224.753Z" transform="translate(-503.648 -224.374)" opacity="0.2"/>
                      </g>
                    </g>
                  </g>
                  <g id="Group_173" data-name="Group 173" transform="translate(71.081 37.494)">
                    <path id="Path_424" data-name="Path 424" d="M544.355,269.6c-.037.038-.444-.4-1.321-1.02a12.925,12.925,0,0,0-4.108-1.829,15.976,15.976,0,0,0-6.637-.23,37.651,37.651,0,0,0-7.748,2.76,46.365,46.365,0,0,1-7.793,2.937,18.787,18.787,0,0,1-6.8.328,12.329,12.329,0,0,1-4.355-1.449,7.8,7.8,0,0,1-1.028-.713c-.221-.181-.332-.281-.322-.294.033-.042.491.348,1.438.846a13.035,13.035,0,0,0,4.313,1.28,19.076,19.076,0,0,0,6.657-.42,48.518,48.518,0,0,0,7.7-2.946,36.483,36.483,0,0,1,7.862-2.757,15.891,15.891,0,0,1,6.8.337,12.216,12.216,0,0,1,4.131,2,8.073,8.073,0,0,1,.93.836C544.27,269.472,544.367,269.584,544.355,269.6Z" transform="translate(-504.241 -265.87)" fill="#fafafa"/>
                  </g>
                  <g id="Group_174" data-name="Group 174" transform="translate(75.039 11.346)">
                    <path id="Path_425" data-name="Path 425" d="M543.179,238.528a8,8,0,0,1-1.288.552,15.77,15.77,0,0,1-1.556.53c-.612.2-1.311.406-2.1.582a44.051,44.051,0,0,1-5.585.985,54,54,0,0,1-6.941.253,50.356,50.356,0,0,1-6.908-.754,36.68,36.68,0,0,1-5.477-1.486,18.851,18.851,0,0,1-2.023-.812,13,13,0,0,1-1.478-.721,7.785,7.785,0,0,1-1.2-.722,8.058,8.058,0,0,1,1.283.557,15.608,15.608,0,0,0,1.5.643,20.844,20.844,0,0,0,2.029.74,40.308,40.308,0,0,0,5.447,1.374,54.4,54.4,0,0,0,6.846.711,58.755,58.755,0,0,0,6.88-.214,49.668,49.668,0,0,0,5.555-.877c.787-.155,1.487-.34,2.1-.51s1.147-.3,1.57-.452A7.987,7.987,0,0,1,543.179,238.528Z" transform="translate(-508.621 -236.931)" fill="#fafafa"/>
                  </g>
                </g>
              </g>
              <g id="Group_212" data-name="Group 212" transform="translate(93.753)">
                <g id="Group_185" data-name="Group 185">
                  <path id="Path_426" data-name="Path 426" d="M494.8,173.268a2.672,2.672,0,0,0,4.209,2.539c1.6-1.155,1.447-3.592.8-5.459s-1.618-3.816-1.092-5.719c.4-1.457,1.6-2.527,2.478-3.761a8.528,8.528,0,0,0,1.219-7.512,7.167,7.167,0,0,0-5.742-4.805c-2.669-.314-5.7.965-7.892-.587-1.59-1.126-2.02-3.311-3.339-4.745-2.047-2.226-5.614-2.071-8.511-1.2s-5.762,2.291-8.775,2.025c-2.515-.223-4.769-1.6-7.2-2.285a13.239,13.239,0,0,0-14.215,20.625,8.456,8.456,0,0,0,4.687,3.378" transform="translate(-444.22 -141.298)" fill="#263238"/>
                  <g id="Group_181" data-name="Group 181" transform="translate(8.088 11.294)">
                    <g id="Group_178" data-name="Group 178">
                      <g id="Group_177" data-name="Group 177">
                        <path id="Path_427" data-name="Path 427" d="M491.234,231.165h0a15.039,15.039,0,0,1-17.488-12.034c-.871-4.66-1.594-8.586-1.594-8.586s-12.1.177-14.255-11.584-4.575-37.61-4.575-37.61l-.15-1.562c12.643-8.19,28.94-7.6,42.252-.55l.4,2.431,7.648,53.022A15.035,15.035,0,0,1,491.234,231.165Z" transform="translate(-453.172 -153.797)" fill="#ffbe9d"/>
                        <path id="Path_428" data-name="Path 428" d="M479.874,193.879l-7.566,3.669a4.55,4.55,0,0,0,5.6.884C481.213,196.54,479.874,193.879,479.874,193.879Z" transform="translate(-455.018 -157.663)" fill="#fff"/>
                        <path id="Path_429" data-name="Path 429" d="M474.124,215.672a27.806,27.806,0,0,0,14.621-6.986s-2.186,9.1-14.128,10.045Z" transform="translate(-455.193 -159.091)" fill="#eb996e"/>
                      </g>
                    </g>
                    <g id="Group_180" data-name="Group 180" transform="translate(42.084 15.562)">
                      <path id="Path_430" data-name="Path 430" d="M500.915,171.267c.247-.126,8.672-2.156,8.951,8.022s-10.092,7.093-10.118,6.8S500.915,171.267,500.915,171.267Z" transform="translate(-499.749 -171.02)" fill="#ffbe9d"/>
                      <g id="Group_179" data-name="Group 179" transform="translate(3.012 3.308)">
                        <path id="Path_431" data-name="Path 431" d="M503.091,182.786c.043-.033.181.12.484.248a1.776,1.776,0,0,0,1.326-.008c1.064-.425,1.923-2.157,1.922-3.992a5.855,5.855,0,0,0-.566-2.525,2.049,2.049,0,0,0-1.371-1.325.9.9,0,0,0-1.033.515c-.129.288-.059.49-.112.509-.028.026-.223-.164-.154-.587a1.139,1.139,0,0,1,.383-.649,1.341,1.341,0,0,1,.974-.286,2.494,2.494,0,0,1,1.9,1.527,6.023,6.023,0,0,1,.692,2.82c-.009,2.052-1.007,4-2.466,4.466a1.9,1.9,0,0,1-1.629-.225C503.115,183.032,503.056,182.806,503.091,182.786Z" transform="translate(-503.082 -174.681)" fill="#eb996e"/>
                      </g>
                    </g>
                  </g>
                  <g id="Group_184" data-name="Group 184" transform="translate(4.839 1.152)">
                    <path id="Path_432" data-name="Path 432" d="M450.939,166.317s7.618,2.48,16.28-3.434c5.683-3.88,12.592-6.342,14.328-5.329s2.927,7.253,9.223,8.261c0,0,1.227,12.051,5.951,10.968s-.808-19.25-.808-19.25l-12.026-6.389-13.1-.664-13.869,3.494-7.342,5.949Z" transform="translate(-449.576 -143.335)" fill="#263238"/>
                    <g id="Group_182" data-name="Group 182" transform="translate(41.147 3.934)">
                      <path id="Path_433" data-name="Path 433" d="M499.785,147.033a8.18,8.18,0,0,0-4.654,2.618,4.34,4.34,0,0,1,4.654-2.618Z" transform="translate(-495.115 -146.926)" fill="#263238"/>
                    </g>
                    <g id="Group_183" data-name="Group 183" transform="translate(40.04)">
                      <path id="Path_434" data-name="Path 434" d="M494.1,142.573a7.862,7.862,0,0,1,.815,3.719,7.474,7.474,0,0,1-.452,2.684c-.254.653-.505,1.007-.556.982a19.011,19.011,0,0,0,.537-3.663C494.409,144.256,493.941,142.608,494.1,142.573Z" transform="translate(-493.89 -142.572)" fill="#263238"/>
                    </g>
                  </g>
                </g>
                <g id="Group_193" data-name="Group 193" transform="translate(11.776 32.659)">
                  <g id="Group_188" data-name="Group 188" transform="translate(0.082 1.673)">
                    <g id="Group_187" data-name="Group 187">
                      <g id="Group_186" data-name="Group 186">
                        <path id="Path_435" data-name="Path 435" d="M457.344,180.944a1.73,1.73,0,0,0,1.754,1.66,1.656,1.656,0,0,0,1.7-1.647,1.731,1.731,0,0,0-1.752-1.662A1.657,1.657,0,0,0,457.344,180.944Z" transform="translate(-457.344 -179.295)" fill="#263238"/>
                      </g>
                    </g>
                  </g>
                  <g id="Group_192" data-name="Group 192">
                    <g id="Group_191" data-name="Group 191">
                      <g id="Group_190" data-name="Group 190">
                        <g id="Group_189" data-name="Group 189">
                          <path id="Path_436" data-name="Path 436" d="M457.285,179.435c.226.214,1.486-.82,3.346-.909,1.857-.115,3.269.773,3.46.536.094-.106-.145-.5-.761-.9a4.747,4.747,0,0,0-2.783-.707,4.564,4.564,0,0,0-2.649,1C457.348,178.922,457.174,179.34,457.285,179.435Z" transform="translate(-457.253 -177.443)" fill="#263238"/>
                        </g>
                      </g>
                    </g>
                  </g>
                </g>
                <g id="Group_201" data-name="Group 201" transform="translate(29.61 31.514)">
                  <g id="Group_196" data-name="Group 196" transform="translate(0.544 1.779)">
                    <g id="Group_195" data-name="Group 195">
                      <g id="Group_194" data-name="Group 194">
                        <path id="Path_437" data-name="Path 437" d="M477.6,179.874a1.729,1.729,0,0,0,1.83,1.575,1.654,1.654,0,0,0,1.624-1.725,1.733,1.733,0,0,0-1.829-1.578A1.656,1.656,0,0,0,477.6,179.874Z" transform="translate(-477.593 -178.145)" fill="#263238"/>
                      </g>
                    </g>
                  </g>
                  <g id="Group_200" data-name="Group 200">
                    <g id="Group_199" data-name="Group 199">
                      <g id="Group_198" data-name="Group 198">
                        <g id="Group_197" data-name="Group 197">
                          <path id="Path_438" data-name="Path 438" d="M477.027,178.336c.236.2,1.447-.889,3.3-1.064,1.849-.2,3.3.619,3.48.372.089-.11-.165-.494-.8-.867a4.745,4.745,0,0,0-2.813-.576,4.562,4.562,0,0,0-2.6,1.129C477.068,177.821,476.912,178.246,477.027,178.336Z" transform="translate(-476.991 -176.176)" fill="#263238"/>
                        </g>
                      </g>
                    </g>
                  </g>
                </g>
                <g id="Group_205" data-name="Group 205" transform="translate(19.399 32.55)">
                  <g id="Group_204" data-name="Group 204">
                    <g id="Group_203" data-name="Group 203">
                      <g id="Group_202" data-name="Group 202">
                        <path id="Path_439" data-name="Path 439" d="M470.551,192.845a12.285,12.285,0,0,0-3.062-.25c-.478,0-.935-.053-1.046-.368a2.427,2.427,0,0,1,.179-1.434q.5-1.782,1.048-3.739c1.444-5.319,2.44-9.675,2.225-9.731s-1.559,4.21-3,9.53q-.516,1.965-.987,3.755a2.749,2.749,0,0,0-.065,1.88,1.194,1.194,0,0,0,.846.616,3.2,3.2,0,0,0,.814.033A12.155,12.155,0,0,0,470.551,192.845Z" transform="translate(-465.69 -177.322)" fill="#263238"/>
                      </g>
                    </g>
                  </g>
                </g>
                <g id="Group_208" data-name="Group 208" transform="translate(28.479 26.369)">
                  <g id="Group_207" data-name="Group 207">
                    <g id="Group_206" data-name="Group 206">
                      <path id="Path_440" data-name="Path 440" d="M475.756,172.256c.232.485,2.059.067,4.258.117,2.2.006,4.016.472,4.26-.008.108-.229-.244-.673-1-1.091a7.4,7.4,0,0,0-6.49-.083C476.018,171.589,475.655,172.023,475.756,172.256Z" transform="translate(-475.74 -170.481)" fill="#263238"/>
                    </g>
                  </g>
                </g>
                <g id="Group_211" data-name="Group 211" transform="translate(11.49 27.418)">
                  <g id="Group_210" data-name="Group 210">
                    <g id="Group_209" data-name="Group 209">
                      <path id="Path_441" data-name="Path 441" d="M457,173.9c.368.389,1.6-.172,3.134-.342,1.527-.224,2.862.007,3.119-.463.11-.227-.136-.628-.743-.971a4.566,4.566,0,0,0-5.038.649C456.975,173.257,456.839,173.708,457,173.9Z" transform="translate(-456.937 -171.643)" fill="#263238"/>
                    </g>
                  </g>
                </g>
              </g>
            </g>
          </g>
          <g id="Character_1" data-name="Character 1" transform="translate(88.214 144.183)">
            <g id="Group_302" data-name="Group 302" transform="translate(0)">
              <g id="Group_214" data-name="Group 214" transform="translate(0 100.859)">
                <path id="Path_442" data-name="Path 442" d="M94.274,267.36,142.7,388.418H278.6L235.428,265.71a2.221,2.221,0,0,0-2.1-1.485l-137,.089A2.221,2.221,0,0,0,94.274,267.36Z" transform="translate(-94.113 -264.225)" fill="#4a58b2"/>
                <path id="Path_443" data-name="Path 443" d="M102.526,271.17l44.465,108.461a1.268,1.268,0,0,0,1.177.778H271.979a1.242,1.242,0,0,0,1.2-1.651L233.781,270.3a1.267,1.267,0,0,0-1.2-.824H103.7A1.241,1.241,0,0,0,102.526,271.17Z" transform="translate(-94.915 -264.731)" fill="#e7e7e7"/>
                <path id="Path_444" data-name="Path 444" d="M147.882,400.766H332.588V392.25H152.9Z" transform="translate(-99.299 -276.573)" fill="#4a58b2"/>
              </g>
              <g id="Group_300" data-name="Group 300" transform="translate(60.408)">
                <g id="Group_219" data-name="Group 219" transform="translate(106.208 68.098)">
                  <path id="Path_445" data-name="Path 445" d="M372.9,267.009s3.386-4.394,1.1-9.471-8.434-10.869-8.434-10.869c-1.787-.461.578-10.672,1.617-14.053,1.026-3.34-.133-5.227-1.978-4.492-1.258.5-4.681,10.774-5.631,14.142a36.308,36.308,0,0,1-2.659,7.425c-.975,1.635-2.094,2.145-3.222-.419-2.488-5.654-6.48-9.092-8.182-9.274s-2.52,2.152-1.1,3.435a23.054,23.054,0,0,1,3.519,5.137,15.055,15.055,0,0,1,1.658,4.709c.244,1.429.417,2.7.55,3.844a36.367,36.367,0,0,1-.069,8.54l-34.046,40.209-7.428-27.221-.689-2.094-29.313,10.89c-.875.233,6.3,21.552,10.854,34.8a24.04,24.04,0,0,0,13.632,14.44h0a24.048,24.048,0,0,0,28.573-8.126l36.442-52.9-.786-.536.738.336Z" transform="translate(-278.514 -227.967)" fill="#b78876"/>
                  <g id="Group_215" data-name="Group 215" transform="translate(82.813 18.722)">
                    <path id="Path_446" data-name="Path 446" d="M377.189,251.33a4.346,4.346,0,0,1-.292.995q-.39,1.08-.959,2.648c-.434,1.146-.932,2.462-1.478,3.905a7.876,7.876,0,0,1-1.111,2.274,2.106,2.106,0,0,1-1.252.71,1.547,1.547,0,0,1-1.4-.558,2.267,2.267,0,0,1-.523-1.372,4.8,4.8,0,0,1,.153-1.357c.2-.84.42-1.635.642-2.393.441-1.514.906-2.857,1.328-3.972s.805-2,1.084-2.6a4.123,4.123,0,0,1,.486-.916,4.789,4.789,0,0,1-.316.986c-.227.624-.559,1.525-.941,2.648s-.809,2.468-1.224,3.977c-.207.754-.415,1.554-.608,2.377a2.581,2.581,0,0,0,.277,2.321,1.075,1.075,0,0,0,.981.4,1.66,1.66,0,0,0,.97-.552,7.8,7.8,0,0,0,1.053-2.128l1.572-3.868c.433-1.022.8-1.888,1.1-2.593A4.4,4.4,0,0,1,377.189,251.33Z" transform="translate(-370.167 -248.688)" fill="#aa6550"/>
                  </g>
                  <g id="Group_216" data-name="Group 216" transform="translate(86.315 22.586)">
                    <path id="Path_447" data-name="Path 447" d="M381.017,255.717a3.424,3.424,0,0,1-.255.873c-.192.551-.486,1.343-.857,2.317s-.814,2.128-1.336,3.416a3.819,3.819,0,0,1-1.356,1.809,2.148,2.148,0,0,1-1.213.357,1.822,1.822,0,0,1-1.2-.542,2.874,2.874,0,0,1-.737-2.328,12.749,12.749,0,0,1,.438-2.159,27.713,27.713,0,0,1,1.214-3.478c.408-.965.784-1.724,1.057-2.241a3.218,3.218,0,0,1,.474-.777c.068.033-.484,1.2-1.223,3.142a33.194,33.194,0,0,0-1.1,3.464,13.225,13.225,0,0,0-.4,2.08,2.431,2.431,0,0,0,.608,1.962,1.417,1.417,0,0,0,1.84.131,3.44,3.44,0,0,0,1.205-1.594c.524-1.237,1-2.37,1.425-3.367.411-.959.752-1.73,1-2.261A3.4,3.4,0,0,1,381.017,255.717Z" transform="translate(-374.043 -252.963)" fill="#aa6550"/>
                  </g>
                  <g id="Group_217" data-name="Group 217" transform="translate(90.236 26.904)">
                    <path id="Path_448" data-name="Path 448" d="M383.333,260.193a14.9,14.9,0,0,1-.685,2.573c-.245.788-.522,1.71-.877,2.758a2.37,2.37,0,0,1-1.154,1.419,1.348,1.348,0,0,1-1.053.044,1.708,1.708,0,0,1-.811-.68,3.21,3.21,0,0,1-.362-1.906,10.819,10.819,0,0,1,.218-1.721,11.124,11.124,0,0,1,.964-2.761,9.76,9.76,0,0,1,1.057-1.657c.289-.362.482-.534.5-.517.067.05-.592.839-1.26,2.317a12.1,12.1,0,0,0-.838,2.7,11.151,11.151,0,0,0-.183,1.657,2.828,2.828,0,0,0,.3,1.632,1.011,1.011,0,0,0,1.279.472,1.959,1.959,0,0,0,.938-1.156l.967-2.706A14.99,14.99,0,0,1,383.333,260.193Z" transform="translate(-378.382 -257.743)" fill="#aa6550"/>
                  </g>
                  <g id="Group_218" data-name="Group 218" transform="translate(78.205 27.444)">
                    <path id="Path_449" data-name="Path 449" d="M370.426,268.969c-.08-.011,0-.717-.087-1.838a11.4,11.4,0,0,0-3.845-7.624c-.848-.739-1.465-1.091-1.426-1.162a4.45,4.45,0,0,1,1.635.9,10.228,10.228,0,0,1,3.968,7.866A4.483,4.483,0,0,1,370.426,268.969Z" transform="translate(-365.067 -258.341)" fill="#aa6550"/>
                  </g>
                </g>
                <g id="Group_223" data-name="Group 223" transform="translate(0 169.918)">
                  <path id="Path_450" data-name="Path 450" d="M160.969,386.462l88.353.446,1.083-15.579-68.921-30.673a53.429,53.429,0,0,0-11.447,25.154l-9.068,20.652" transform="translate(-160.969 -340.656)" fill="#263238"/>
                  <g id="Group_220" data-name="Group 220" transform="translate(13.589 15.804)">
                    <path id="Path_451" data-name="Path 451" d="M204.165,358.15a5.835,5.835,0,0,1-.8.9,10.916,10.916,0,0,1-1.024.977,18.087,18.087,0,0,1-1.447,1.193,20.133,20.133,0,0,1-1.87,1.295c-.679.46-1.46.857-2.272,1.292a27.894,27.894,0,0,1-11.525,2.956c-.922.008-1.8.036-2.613-.04a19.981,19.981,0,0,1-2.263-.235,17.839,17.839,0,0,1-1.842-.349,10.871,10.871,0,0,1-1.367-.363,5.912,5.912,0,0,1-1.134-.407c.027-.1,1.659.453,4.388.789a21.693,21.693,0,0,0,2.238.175c.806.059,1.668.015,2.575,0a29.142,29.142,0,0,0,11.352-2.911c.8-.419,1.58-.8,2.258-1.235a21.724,21.724,0,0,0,1.878-1.231C202.928,359.345,204.093,358.078,204.165,358.15Z" transform="translate(-176.009 -358.147)" fill="#455a64"/>
                  </g>
                  <g id="Group_221" data-name="Group 221" transform="translate(65.761 24.238)">
                    <path id="Path_452" data-name="Path 452" d="M233.755,387.74a25.878,25.878,0,0,1,1.071-3c.746-1.958,1.691-4.436,2.737-7.176,1.064-2.735,2.028-5.207,2.788-7.16a21.821,21.821,0,0,1,1.27-2.922,20.809,20.809,0,0,1-.959,3.04c-.651,1.856-1.585,4.407-2.66,7.21s-2.09,5.324-2.868,7.133c-.387.9-.717,1.63-.958,2.126A3.035,3.035,0,0,1,233.755,387.74Z" transform="translate(-233.75 -367.482)" fill="#455a64"/>
                  </g>
                  <g id="Group_222" data-name="Group 222" transform="translate(64.523 23.403)">
                    <path id="Path_453" data-name="Path 453" d="M234.119,366.665a2.643,2.643,0,0,0-1.176,1.129,1.66,1.66,0,0,0,.079,1.622,1.716,1.716,0,0,0,3.167-.493,1.657,1.657,0,0,0-.417-1.569,2.644,2.644,0,0,0-1.463-.718c0-.026.163-.094.482-.074a2.032,2.032,0,0,1,1.216.557,1.977,1.977,0,0,1,.6,1.906,2.129,2.129,0,0,1-3.958.616,1.977,1.977,0,0,1-.005-2,2.028,2.028,0,0,1,.989-.9C233.936,366.625,234.116,366.638,234.119,366.665Z" transform="translate(-232.379 -366.557)" fill="#455a64"/>
                  </g>
                </g>
                <g id="Group_227" data-name="Group 227" transform="translate(20.515 69.47)">
                  <g id="Group_224" data-name="Group 224" transform="translate(91.538 14.366)">
                    <path id="Path_454" data-name="Path 454" d="M298.949,245.385s12.918,38.007,12.191,39.558l-26.157,7.17Z" transform="translate(-284.983 -245.385)" fill="#7b81ad"/>
                    <path id="Path_455" data-name="Path 455" d="M298.949,245.385s12.918,38.007,12.191,39.558l-26.157,7.17Z" transform="translate(-284.983 -245.385)" fill="#7b81ad" opacity="0.2"/>
                  </g>
                  <path id="Path_456" data-name="Path 456" d="M267.977,306.826l-8.244,34.991L254.377,361.4l-70.7-31.466,22.437-36.094s12.294-50.26,29.634-59.553a40.482,40.482,0,0,1,24.912-4.406l15.059,2.08c.332.046.661.1.987.165a16.6,16.6,0,0,1,13.068,17.263c-.329,6.537-1.423,17.608-5.025,25.883C279.925,286.347,267.977,306.826,267.977,306.826Z" transform="translate(-183.674 -229.486)" fill="#99a1d8"/>
                  <g id="Group_225" data-name="Group 225" transform="translate(10.308 77.929)">
                    <path id="Path_457" data-name="Path 457" d="M258.115,361.865s-.178-.071-.517-.232a13.334,13.334,0,0,1-1.462-.792,17.588,17.588,0,0,1-8.15-13.724,12.6,12.6,0,0,1,1.2-6.192,9.142,9.142,0,0,1,2.063-2.8,6.6,6.6,0,0,1,3.289-1.621A7.716,7.716,0,0,1,263,343.435a8.524,8.524,0,0,1-.778,4.272,10.435,10.435,0,0,1-6.811,5.741,14.3,14.3,0,0,1-9.487-.931,22.059,22.059,0,0,1-7.838-6.328A33.416,33.416,0,0,1,235.1,341.9a18.37,18.37,0,0,1-2.044-4.941,11.74,11.74,0,0,1-.059-5.45,8.732,8.732,0,0,1,2.825-4.759,7.255,7.255,0,0,1,5.373-1.577,5.953,5.953,0,0,1,2.711,1.019,5.658,5.658,0,0,1,1.834,2.267,7.637,7.637,0,0,1,.1,5.678,10.156,10.156,0,0,1-3.462,4.427,21.844,21.844,0,0,1-20.6,2.341,18.4,18.4,0,0,1-7.8-6.348,16.5,16.5,0,0,1-3.066-9.056,12.374,12.374,0,0,1,.741-4.577,8.449,8.449,0,0,1,2.591-3.675,7.15,7.15,0,0,1,4.073-1.507,5.436,5.436,0,0,1,3.943,1.362A5.757,5.757,0,0,1,224,320.718a7.641,7.641,0,0,1-.558,3.808,9.166,9.166,0,0,1-5.215,4.682,17.59,17.59,0,0,1-6.217,1.147,23.856,23.856,0,0,1-9.867-2.011A23.04,23.04,0,0,1,196.712,325a16.2,16.2,0,0,1-1.233-1.114c-.267-.261-.4-.4-.4-.4s.152.119.429.37.69.622,1.26,1.074a23.827,23.827,0,0,0,15.237,5.166,17.343,17.343,0,0,0,6.111-1.162,10.713,10.713,0,0,0,2.907-1.723,7.446,7.446,0,0,0,2.114-2.81,7.314,7.314,0,0,0,.519-3.638,5.4,5.4,0,0,0-1.638-3.389,5.066,5.066,0,0,0-3.682-1.253,6.78,6.78,0,0,0-3.847,1.437,8.06,8.06,0,0,0-2.456,3.509,11.986,11.986,0,0,0-.7,4.428,16.081,16.081,0,0,0,3.007,8.816,17.966,17.966,0,0,0,7.621,6.183,21.4,21.4,0,0,0,20.137-2.3,9.707,9.707,0,0,0,3.305-4.218,7.174,7.174,0,0,0-.091-5.321,5.182,5.182,0,0,0-1.68-2.078,5.486,5.486,0,0,0-2.493-.936,6.794,6.794,0,0,0-5.02,1.472,8.269,8.269,0,0,0-2.669,4.5,11.283,11.283,0,0,0,.054,5.237,24.019,24.019,0,0,0,4.929,9.055,21.644,21.644,0,0,0,7.668,6.217,13.893,13.893,0,0,0,9.2.926,10.036,10.036,0,0,0,6.564-5.5,8.15,8.15,0,0,0,.758-4.08,7.37,7.37,0,0,0-8.034-6.638,6.284,6.284,0,0,0-3.135,1.531,8.851,8.851,0,0,0-2,2.7,12.353,12.353,0,0,0-1.2,6.048,17.165,17.165,0,0,0,3.355,9.3,17.5,17.5,0,0,0,4.583,4.353,15.447,15.447,0,0,0,1.433.829C257.949,361.764,258.115,361.865,258.115,361.865Z" transform="translate(-195.082 -315.733)" fill="#fafafa"/>
                  </g>
                  <g id="Group_226" data-name="Group 226" transform="translate(77.041 33.753)">
                    <path id="Path_458" data-name="Path 458" d="M286.453,289.644a1.067,1.067,0,0,1-.174-.193l-.479-.6a15.385,15.385,0,0,1-1.508-2.532,17,17,0,0,1-1.136-10.643,14.392,14.392,0,0,1,3.328-6.694,4.618,4.618,0,0,1,1.787-1.142,2.818,2.818,0,0,1,2.2.211A3.677,3.677,0,0,1,292,269.726a5.587,5.587,0,0,1,.478,2.254,14.249,14.249,0,0,1-3.2,8.878,14.026,14.026,0,0,1-3.824,3.317,10.374,10.374,0,0,1-5,1.486,7.352,7.352,0,0,1-4.886-1.8,9.791,9.791,0,0,1-2.854-4.191,14.291,14.291,0,0,1-.769-4.826,16.5,16.5,0,0,1,.578-4.648,6.45,6.45,0,0,1,1.034-2.053,3.242,3.242,0,0,1,1.9-1.243,3.053,3.053,0,0,1,2.174.389,4.818,4.818,0,0,1,1.516,1.478,6.186,6.186,0,0,1,.821,1.855,7.539,7.539,0,0,1,.286,1.923,9.859,9.859,0,0,1-.6,3.574,12.843,12.843,0,0,1-3.47,5.1,23.379,23.379,0,0,1-3.753,2.768c-1.1.66-1.973,1.122-2.57,1.432l-.683.343a1.09,1.09,0,0,1-.241.1,1.1,1.1,0,0,1,.219-.145l.66-.384c.581-.336,1.442-.825,2.518-1.505a24.116,24.116,0,0,0,3.67-2.8,12.649,12.649,0,0,0,3.336-5.018,9.565,9.565,0,0,0,.549-3.452,7.258,7.258,0,0,0-.286-1.832,5.846,5.846,0,0,0-.782-1.739,4.437,4.437,0,0,0-1.4-1.348,2.644,2.644,0,0,0-1.888-.331c-1.336.275-2.187,1.644-2.6,3.021a16.2,16.2,0,0,0-.543,4.517,13.84,13.84,0,0,0,.754,4.67,9.348,9.348,0,0,0,2.721,3.989,6.882,6.882,0,0,0,4.58,1.685,9.922,9.922,0,0,0,4.772-1.42,13.591,13.591,0,0,0,3.7-3.2,13.846,13.846,0,0,0,3.125-8.578,5.188,5.188,0,0,0-.429-2.085,3.274,3.274,0,0,0-1.345-1.491,2.406,2.406,0,0,0-1.885-.189,4.236,4.236,0,0,0-1.633,1.036,14.156,14.156,0,0,0-3.276,6.488,16.6,16.6,0,0,0-.258,6.062,16.988,16.988,0,0,0,1.236,4.434,17.292,17.292,0,0,0,1.419,2.553l.438.623A1.056,1.056,0,0,1,286.453,289.644Z" transform="translate(-268.939 -266.842)" fill="#fafafa"/>
                  </g>
                </g>
                <g id="Group_239" data-name="Group 239" transform="translate(55.792 83.877)">
                  <g id="Group_236" data-name="Group 236" transform="translate(6.565 29.527)">
                    <g id="Group_229" data-name="Group 229">
                      <g id="Group_228" data-name="Group 228">
                        <path id="Path_459" data-name="Path 459" d="M261.055,280.1s0,32.128,8.042,35.172c21.878,8.28,48.039,6.375,57.245,5.5,1.1-.769,2.375-1.708,3.825-2.883l3.043-2.534s14.426,2.752,14.236,3.512-5.629,2.513-11.214,1.256a2.412,2.412,0,0,0,1.329,3.417c3.679,1.79,16.714,7.309,18.779,8.556,1.84,1.11,3.546,2.937,1.483,3.062s-13.016-2.576-13.016-2.576,14.423,3.256,13.851,5.335c-.394,1.435-4.4,1.74-13.72-1.362,0,0,11.862,2.772,12.992,4.156,2.553,3.129-11.752-.066-11.752-.066,10,2.326,9.951,1.785,9.919,3.186-.023,1.048-2.356,1.239-7.928.752-4.52-.395-9.28.1-16.2-.129h0s-89.328,15.915-97.467-23.513c-4.388-21.254-3.645-29.1-4.525-42.833" transform="translate(-229.983 -278.11)" fill="#b78876"/>
                      </g>
                    </g>
                    <g id="Group_231" data-name="Group 231" transform="translate(110.143 61.205)">
                      <g id="Group_230" data-name="Group 230">
                        <path id="Path_460" data-name="Path 460" d="M351.884,345.919c-.064.249,2.975,1.091,6.787,1.878s6.938,1.218,6.978.963-3-1.1-6.789-1.878S351.947,345.669,351.884,345.919Z" transform="translate(-351.883 -345.848)" fill="#aa6550"/>
                      </g>
                    </g>
                    <g id="Group_233" data-name="Group 233" transform="translate(110.632 57.289)">
                      <g id="Group_232" data-name="Group 232">
                        <path id="Path_461" data-name="Path 461" d="M352.425,341.565c-.068.248,3.121,1.327,7.119,2.408s7.3,1.755,7.364,1.506-3.12-1.327-7.12-2.408S352.492,341.316,352.425,341.565Z" transform="translate(-352.424 -341.514)" fill="#aa6550"/>
                      </g>
                    </g>
                    <g id="Group_235" data-name="Group 235" transform="translate(111.16 53.205)">
                      <g id="Group_234" data-name="Group 234">
                        <path id="Path_462" data-name="Path 462" d="M353.01,337.046c-.07.248,2.929,1.319,6.7,2.392s6.885,1.741,6.956,1.493-2.928-1.318-6.7-2.392S353.08,336.8,353.01,337.046Z" transform="translate(-353.009 -336.995)" fill="#aa6550"/>
                      </g>
                    </g>
                  </g>
                  <path id="Path_463" data-name="Path 463" d="M244.019,245.51a16.594,16.594,0,0,0-15.01,6.986c-3.041,4.249-5.827,11.077-4.453,21.211,2.681,19.769,4.868,26.358,4.868,26.358l36.33-5.755-4.97-33.159S256.4,246.762,244.019,245.51Z" transform="translate(-222.859 -245.431)" fill="#99a1d8"/>
                  <path id="Path_464" data-name="Path 464" d="M244.019,245.51a16.594,16.594,0,0,0-15.01,6.986c-3.041,4.249-5.827,11.077-4.453,21.211,2.681,19.769,4.868,26.358,4.868,26.358l36.33-5.755-4.97-33.159S256.4,246.762,244.019,245.51Z" transform="translate(-224.196 -245.431)" opacity="0.2"/>
                  <g id="Group_237" data-name="Group 237" transform="translate(54.401 66.67)">
                    <path id="Path_465" data-name="Path 465" d="M341.22,319.895a4.308,4.308,0,0,1-.783-.1c-.505-.076-1.261-.23-2.206-.371a2.615,2.615,0,0,0-1.41.563,13.671,13.671,0,0,0-1.5,1.171,39.766,39.766,0,0,0-3.264,3.294l-.034.039-.049.015a32.64,32.64,0,0,1-8.651,1.316A96.683,96.683,0,0,1,313,325.4c-8.336-.59-15.906-1.052-21.345-1.807-2.72-.361-4.909-.736-6.41-1.056-.754-.145-1.33-.3-1.723-.388a3.081,3.081,0,0,1-.593-.171,2.956,2.956,0,0,1,.612.078l1.737.3c1.508.264,3.7.588,6.417.906,5.435.669,12.991,1.077,21.339,1.668a101.956,101.956,0,0,0,10.285.451,33.088,33.088,0,0,0,8.558-1.224l-.084.054a37.8,37.8,0,0,1,3.346-3.274,13.411,13.411,0,0,1,1.551-1.161,2.745,2.745,0,0,1,1.569-.555c.969.177,1.7.36,2.2.47A4.513,4.513,0,0,1,341.22,319.895Z" transform="translate(-282.925 -319.218)" fill="#aa6550"/>
                  </g>
                  <g id="Group_238" data-name="Group 238" transform="translate(3.369 15.669)">
                    <path id="Path_466" data-name="Path 466" d="M263.477,277.481a1.311,1.311,0,0,1-.28.077l-.838.18c-.371.054-.837.1-1.386.139a13.779,13.779,0,0,1-1.9-.078,14.316,14.316,0,0,1-7.677-3.352,12.994,12.994,0,0,1-2.45-2.723,11.506,11.506,0,0,1-1.691-3.668,6.781,6.781,0,0,1-.164-2.172,3.729,3.729,0,0,1,.848-2.125,3,3,0,0,1,2.162-.983,4.927,4.927,0,0,1,2.364.582,8.238,8.238,0,0,1,3.437,3.594,9.976,9.976,0,0,1,1.035,5.123,9.213,9.213,0,0,1-1.909,5.1,11.479,11.479,0,0,1-10.223,4.309,13.777,13.777,0,0,1-9.56-5.85,10.692,10.692,0,0,1-2.016-5.067,6.3,6.3,0,0,1,.312-2.674A5.638,5.638,0,0,1,235,265.7a4.436,4.436,0,0,1,2.308-1.156,4.031,4.031,0,0,1,2.481.411,5.546,5.546,0,0,1,2.817,3.717,9.7,9.7,0,0,1-.032,4.383,11.96,11.96,0,0,1-1.547,3.729,11.6,11.6,0,0,1-5.182,4.493,11.72,11.72,0,0,1-5.11.948,11.183,11.183,0,0,1-3.236-.586,6.14,6.14,0,0,1-1.057-.445c.011-.026.369.144,1.086.354a11.965,11.965,0,0,0,8.211-.512,11.378,11.378,0,0,0,5.006-4.429,11.675,11.675,0,0,0,1.475-3.631,9.385,9.385,0,0,0,.008-4.209,5.157,5.157,0,0,0-2.625-3.443,3.618,3.618,0,0,0-2.229-.362,4.012,4.012,0,0,0-2.08,1.056,5.211,5.211,0,0,0-1.338,2.027,5.867,5.867,0,0,0-.279,2.484,10.258,10.258,0,0,0,1.944,4.842,13.337,13.337,0,0,0,9.234,5.646,11.032,11.032,0,0,0,9.8-4.12,9.262,9.262,0,0,0,.854-9.747,8.857,8.857,0,0,0-1.38-1.991,7.545,7.545,0,0,0-1.859-1.43,4.543,4.543,0,0,0-2.162-.548,2.6,2.6,0,0,0-1.885.84,3.358,3.358,0,0,0-.764,1.9,6.418,6.418,0,0,0,.143,2.052,11.206,11.206,0,0,0,1.614,3.565,12.72,12.72,0,0,0,2.368,2.682,14.033,14.033,0,0,0,2.632,1.823,13.891,13.891,0,0,0,9.254,1.438Z" transform="translate(-226.445 -262.773)" fill="#fafafa"/>
                  </g>
                </g>
                <g id="Group_299" data-name="Group 299" transform="translate(40.778)">
                  <g id="Group_245" data-name="Group 245" transform="translate(0 6.975)">
                    <g id="Group_240" data-name="Group 240">
                      <path id="Path_467" data-name="Path 467" d="M242.407,167.371a10.589,10.589,0,0,0-18.82-2.3c-1.376,2.085-1.968,4.571-2.831,6.915s-2.14,4.717-4.336,5.906c-2.57,1.391-5.945.913-8.281,2.667-2.6,1.95-2.665,6.235-.486,8.641s5.972,2.925,8.987,1.722a18.427,18.427,0,0,0-1.233,5.953,6.239,6.239,0,0,0,2.6,5.247,6.057,6.057,0,0,0,5.9-.108,14.372,14.372,0,0,0,4.466-4.2,15.091,15.091,0,0,0,1.494,4.108,5.1,5.1,0,0,0,3.408,2.535,4.94,4.94,0,0,0,4.579-2.256,11.184,11.184,0,0,0,1.652-5.064,36.546,36.546,0,0,0-.851-13.207c-.672-2.76-1.631-5.587-1.1-8.379s3.284-5.417,6-4.577" transform="translate(-206.1 -160.319)" fill="#263238"/>
                    </g>
                    <g id="Group_242" data-name="Group 242" transform="translate(0.687 4.083)">
                      <g id="Group_241" data-name="Group 241">
                        <path id="Path_468" data-name="Path 468" d="M206.86,186.858c-.008.024.149.1.46.22a10.764,10.764,0,0,0,1.4.4,13.814,13.814,0,0,0,12.422-3.562,14.216,14.216,0,0,0,2.843-3.8,19.3,19.3,0,0,0,1.585-4.818,27.008,27.008,0,0,1,1.324-4.74,8.04,8.04,0,0,1,2.7-3.482,8.8,8.8,0,0,1,7.24-1.4,10.627,10.627,0,0,1,4.533,2.449c.923.829,1.32,1.408,1.374,1.366.021-.015-.063-.168-.245-.448a8.519,8.519,0,0,0-.93-1.126,10.281,10.281,0,0,0-4.6-2.747,9.241,9.241,0,0,0-7.77,1.352,8.651,8.651,0,0,0-2.965,3.749,26.7,26.7,0,0,0-1.381,4.865,18.979,18.979,0,0,1-1.509,4.651,13.788,13.788,0,0,1-2.671,3.641,13.615,13.615,0,0,1-6.693,3.6,14.836,14.836,0,0,1-5.205.164C207.543,187.009,206.879,186.8,206.86,186.858Z" transform="translate(-206.86 -164.838)" fill="#455a64"/>
                      </g>
                    </g>
                    <g id="Group_244" data-name="Group 244" transform="translate(23.562 9.359)">
                      <g id="Group_243" data-name="Group 243">
                        <path id="Path_469" data-name="Path 469" d="M233.128,204.109c.016.02.14-.061.363-.238a5.076,5.076,0,0,0,.869-.894,8.316,8.316,0,0,0,1.6-4.27,16.763,16.763,0,0,0-.763-6.717,57.528,57.528,0,0,1-2.149-7.837,11.49,11.49,0,0,1,1.475-7.651,11.122,11.122,0,0,1,4.721-4.349,12.232,12.232,0,0,1,4.243-1.189c1.049-.091,1.64-.051,1.645-.112a4.583,4.583,0,0,0-1.661-.175,11.468,11.468,0,0,0-9.532,5.473,11.978,11.978,0,0,0-1.625,8.1,52.494,52.494,0,0,0,2.228,7.931,16.983,16.983,0,0,1,.9,6.471,8.592,8.592,0,0,1-1.316,4.153C233.544,203.678,233.078,204.055,233.128,204.109Z" transform="translate(-232.177 -170.678)" fill="#455a64"/>
                      </g>
                    </g>
                  </g>
                  <g id="Group_246" data-name="Group 246" transform="translate(33.603)">
                    <path id="Path_470" data-name="Path 470" d="M294.539,185.246c7.083-16.38-2.631-26.357-8.956-29.938-3.768-2.133-8.242-2.58-12.57-2.684a46.094,46.094,0,0,0-12.726,1.167A22.834,22.834,0,0,0,249.267,160c-5.177,5.546-6.362,13.758-5.878,21.33a59.467,59.467,0,0,0,7.546,25.483,6.294,6.294,0,0,0,2.216,2.578,2.331,2.331,0,0,0,3.064-.557" transform="translate(-243.29 -152.6)" fill="#263238"/>
                  </g>
                  <g id="Group_249" data-name="Group 249" transform="translate(42.509 11.028)">
                    <g id="Group_248" data-name="Group 248">
                      <g id="Group_247" data-name="Group 247">
                        <path id="Path_471" data-name="Path 471" d="M283.336,227.278l-.258-8.619s10.075-1.672,12.162-14.817c1.038-6.537.71-17.255.158-26.017a13.881,13.881,0,0,0-15.311-12.941l-22.8,2.413a4.624,4.624,0,0,0-4.136,4.689h0l3.031,56.427a13.592,13.592,0,0,0,13.572,12.863h0A13.592,13.592,0,0,0,283.336,227.278Z" transform="translate(-253.146 -164.805)" fill="#b78876"/>
                      </g>
                    </g>
                  </g>
                  <g id="Group_257" data-name="Group 257" transform="translate(75.773 27.851)">
                    <g id="Group_252" data-name="Group 252" transform="translate(3.345 2.143)">
                      <g id="Group_251" data-name="Group 251">
                        <g id="Group_250" data-name="Group 250">
                          <path id="Path_472" data-name="Path 472" d="M297.028,187.32a1.686,1.686,0,0,1-1.625,1.7,1.613,1.613,0,0,1-1.738-1.52,1.688,1.688,0,0,1,1.624-1.7A1.615,1.615,0,0,1,297.028,187.32Z" transform="translate(-293.663 -185.796)" fill="#263238"/>
                        </g>
                      </g>
                    </g>
                    <g id="Group_256" data-name="Group 256">
                      <g id="Group_255" data-name="Group 255">
                        <g id="Group_254" data-name="Group 254">
                          <g id="Group_253" data-name="Group 253">
                            <path id="Path_473" data-name="Path 473" d="M296.624,185.2c-.209.22-1.485-.726-3.3-.72-1.813-.022-3.143.912-3.34.689-.1-.1.117-.5.7-.917a4.631,4.631,0,0,1,2.674-.824,4.446,4.446,0,0,1,2.627.848C296.538,184.7,296.727,185.1,296.624,185.2Z" transform="translate(-289.961 -183.424)" fill="#263238"/>
                          </g>
                        </g>
                      </g>
                    </g>
                  </g>
                  <g id="Group_265" data-name="Group 265" transform="translate(57.941 28.19)">
                    <g id="Group_260" data-name="Group 260" transform="translate(2.997 2.285)">
                      <g id="Group_259" data-name="Group 259">
                        <g id="Group_258" data-name="Group 258">
                          <path id="Path_474" data-name="Path 474" d="M276.907,187.851a1.686,1.686,0,0,1-1.625,1.7,1.612,1.612,0,0,1-1.738-1.52,1.686,1.686,0,0,1,1.625-1.7A1.612,1.612,0,0,1,276.907,187.851Z" transform="translate(-273.543 -186.328)" fill="#263238"/>
                        </g>
                      </g>
                    </g>
                    <g id="Group_264" data-name="Group 264">
                      <g id="Group_263" data-name="Group 263">
                        <g id="Group_262" data-name="Group 262">
                          <g id="Group_261" data-name="Group 261">
                            <path id="Path_475" data-name="Path 475" d="M276.89,185.571c-.21.22-1.488-.726-3.3-.72-1.813-.022-3.144.912-3.34.689-.1-.1.114-.5.7-.917a4.63,4.63,0,0,1,2.674-.824,4.447,4.447,0,0,1,2.628.848C276.8,185.075,276.992,185.472,276.89,185.571Z" transform="translate(-270.226 -183.799)" fill="#263238"/>
                          </g>
                        </g>
                      </g>
                    </g>
                  </g>
                  <g id="Group_269" data-name="Group 269" transform="translate(70.339 28.299)">
                    <g id="Group_268" data-name="Group 268">
                      <g id="Group_267" data-name="Group 267">
                        <g id="Group_266" data-name="Group 266">
                          <path id="Path_476" data-name="Path 476" d="M284.8,199.036a11.993,11.993,0,0,1,2.947-.531c.463-.048.9-.14.979-.456a2.361,2.361,0,0,0-.309-1.373l-1.37-3.527c-1.9-5.022-3.28-9.152-3.077-9.227s1.909,3.935,3.811,8.958q.687,1.857,1.313,3.548a2.679,2.679,0,0,1,.24,1.818,1.166,1.166,0,0,1-.762.678,3.191,3.191,0,0,1-.787.109A11.815,11.815,0,0,1,284.8,199.036Z" transform="translate(-283.947 -183.92)" fill="#263238"/>
                        </g>
                      </g>
                    </g>
                  </g>
                  <g id="Group_272" data-name="Group 272" transform="translate(54.837 60.185)">
                    <g id="Group_271" data-name="Group 271">
                      <g id="Group_270" data-name="Group 270">
                        <path id="Path_477" data-name="Path 477" d="M284.395,223.906a33.445,33.445,0,0,1-17.6-4.7s4.271,9.03,17.428,7.8Z" transform="translate(-266.79 -219.21)" fill="#aa6550"/>
                      </g>
                    </g>
                  </g>
                  <g id="Group_275" data-name="Group 275" transform="translate(65.01 46.553)">
                    <g id="Group_274" data-name="Group 274">
                      <g id="Group_273" data-name="Group 273">
                        <path id="Path_478" data-name="Path 478" d="M283.46,205.356a3.268,3.268,0,0,0-2.93-1.214,2.985,2.985,0,0,0-2.061,1.105,1.892,1.892,0,0,0-.144,2.163,2.2,2.2,0,0,0,2.378.6,6.855,6.855,0,0,0,2.319-1.384,2,2,0,0,0,.518-.536.607.607,0,0,0,0-.675" transform="translate(-278.049 -204.123)" fill="#aa6550"/>
                      </g>
                    </g>
                  </g>
                  <g id="Group_279" data-name="Group 279" transform="translate(65.555 44.669)">
                    <g id="Group_278" data-name="Group 278">
                      <g id="Group_277" data-name="Group 277">
                        <g id="Group_276" data-name="Group 276">
                          <path id="Path_479" data-name="Path 479" d="M278.947,202.038c.3-.017.3,1.952,1.984,3.349s3.781,1.181,3.8,1.457c.028.123-.467.382-1.353.407a4.9,4.9,0,0,1-3.17-1.105,4.272,4.272,0,0,1-1.538-2.808C278.592,202.514,278.812,202.026,278.947,202.038Z" transform="translate(-278.652 -202.038)" fill="#263238"/>
                        </g>
                      </g>
                    </g>
                  </g>
                  <g id="Group_282" data-name="Group 282" transform="translate(57.142 25.425)">
                    <g id="Group_281" data-name="Group 281">
                      <g id="Group_280" data-name="Group 280">
                        <path id="Path_480" data-name="Path 480" d="M277.62,182.1c-.179.492-1.991.259-4.118.516-2.134.213-3.85.837-4.132.394-.126-.211.173-.675.867-1.153a7.214,7.214,0,0,1,6.286-.694C277.3,181.478,277.7,181.865,277.62,182.1Z" transform="translate(-269.342 -180.74)" fill="#263238"/>
                      </g>
                    </g>
                  </g>
                  <g id="Group_285" data-name="Group 285" transform="translate(75.592 22.493)">
                    <g id="Group_284" data-name="Group 284">
                      <g id="Group_283" data-name="Group 283">
                        <path id="Path_481" data-name="Path 481" d="M295.938,179.374c-.319.412-1.569-.016-3.071-.036-1.5-.073-2.776.276-3.068-.155-.128-.209.072-.622.628-1.012a4.447,4.447,0,0,1,4.947.154C295.9,178.749,296.079,179.173,295.938,179.374Z" transform="translate(-289.761 -177.495)" fill="#263238"/>
                      </g>
                    </g>
                  </g>
                  <g id="Group_286" data-name="Group 286" transform="translate(37.941 5.66)">
                    <path id="Path_482" data-name="Path 482" d="M294.911,177.251c-2.3-11.21-5.424-6.773-8.952-12.123-5.113,5.178-16.891,11.148-24.074,12.32a4.709,4.709,0,0,0-2.1.672c-1.108.821-1.194,2.417-1.19,3.8a49.641,49.641,0,0,1-.958,11.611,18.933,18.933,0,0,1-5.616,10.025c-4.335-9.136-4.767-19.767-2.828-29.692.792-4.053,2.135-8.3,5.364-10.877,2.312-1.844,5.3-2.584,8.207-3.118,7.185-1.317,14.784-1.635,21.623.929s12.149,5.72,13.065,12.967" transform="translate(-248.09 -158.865)" fill="#263238"/>
                  </g>
                  <g id="Group_288" data-name="Group 288" transform="translate(35.084 9.414)">
                    <g id="Group_287" data-name="Group 287">
                      <path id="Path_483" data-name="Path 483" d="M244.929,169.779a7.181,7.181,0,0,0,1.471.8,12.593,12.593,0,0,0,1.825.733l1.163.406,1.338.336a33.826,33.826,0,0,0,6.721.922,43.64,43.64,0,0,0,8.29-.539,42.535,42.535,0,0,0,8.018-2.187,34.836,34.836,0,0,0,3.3-1.514l1.453-.774,1.275-.828a17.725,17.725,0,0,0,2.1-1.547l.829-.675.634-.639a7.21,7.21,0,0,0,1.113-1.251c-.114-.119-1.717,1.67-4.959,3.67l-1.275.773-1.448.723c-.981.538-2.113.934-3.269,1.425a45.332,45.332,0,0,1-7.9,2.094,46.515,46.515,0,0,1-8.147.586,36.817,36.817,0,0,1-6.627-.751A60.85,60.85,0,0,1,244.929,169.779Z" transform="translate(-244.928 -163.02)" fill="#455a64"/>
                    </g>
                  </g>
                  <g id="Group_290" data-name="Group 290" transform="translate(38.805 7.308)">
                    <g id="Group_289" data-name="Group 289">
                      <path id="Path_484" data-name="Path 484" d="M249.049,160.7a5.521,5.521,0,0,0,1.134.927,9.583,9.583,0,0,0,1.461.905l.944.519,1.11.472a34.417,34.417,0,0,0,12.914,2.3,58.039,58.039,0,0,0,13.045-1.455c1.64-.366,2.948-.742,3.84-1.036a5.564,5.564,0,0,0,1.362-.53c-.034-.117-2.029.441-5.307,1.054a68.9,68.9,0,0,1-12.933,1.228,37.456,37.456,0,0,1-12.727-2.049A50.188,50.188,0,0,1,249.049,160.7Z" transform="translate(-249.047 -160.688)" fill="#455a64"/>
                    </g>
                  </g>
                  <g id="Group_292" data-name="Group 292" transform="translate(74.626 4.365)">
                    <g id="Group_291" data-name="Group 291">
                      <path id="Path_485" data-name="Path 485" d="M293.272,157.532c0-.088-.454-.176-1.161,0a4.77,4.77,0,0,0-3.413,4.123c-.042.727.128,1.153.216,1.14.209-.005.13-1.738,1.428-3.255C291.589,157.985,293.305,157.738,293.272,157.532Z" transform="translate(-288.692 -157.431)" fill="#455a64"/>
                    </g>
                  </g>
                  <g id="Group_294" data-name="Group 294" transform="translate(4.924 4.25)">
                    <g id="Group_293" data-name="Group 293">
                      <path id="Path_486" data-name="Path 486" d="M217.918,171.68a1.292,1.292,0,0,0-.389-.476,2.952,2.952,0,0,0-1.623-.707,4.092,4.092,0,0,0-2.74.617,3.5,3.5,0,0,0-1.6,3.326,4.827,4.827,0,0,0,2.522,3.733,5,5,0,0,0,5.115-.537,5.762,5.762,0,0,0,1.882-2.178,7.649,7.649,0,0,0,.7-2.888c.137-1.988-.208-4,.154-5.943a11.053,11.053,0,0,1,7.021-8.113,10.118,10.118,0,0,1,8.8,1.085,11.386,11.386,0,0,1,4.163,4.568c.651,1.338.787,2.174.864,2.155a1.883,1.883,0,0,0-.074-.605,7.7,7.7,0,0,0-.528-1.67,11.191,11.191,0,0,0-4.142-4.888,11.348,11.348,0,0,0-4.16-1.685,10.131,10.131,0,0,0-5.148.4,11.652,11.652,0,0,0-7.521,8.622c-.385,2.124-.021,4.155-.15,6.03a7,7,0,0,1-.61,2.627,5.1,5.1,0,0,1-1.64,1.929,4.382,4.382,0,0,1-4.444.548,4.3,4.3,0,0,1-2.28-3.24,3.062,3.062,0,0,1,1.306-2.93,3.861,3.861,0,0,1,2.48-.674A3.59,3.59,0,0,1,217.918,171.68Z" transform="translate(-211.55 -157.304)" fill="#263238"/>
                    </g>
                  </g>
                  <g id="Group_296" data-name="Group 296" transform="translate(45.816 10.592)">
                    <g id="Group_295" data-name="Group 295">
                      <path id="Path_487" data-name="Path 487" d="M256.806,178.282a4.864,4.864,0,0,0,1.37.109c.882.02,2.157.022,3.734-.035a40.2,40.2,0,0,0,12.163-2.1A21.006,21.006,0,0,0,284,168.987a13.872,13.872,0,0,0,1.766-3.327,4.142,4.142,0,0,0,.341-1.336,27,27,0,0,1-2.526,4.352,21.833,21.833,0,0,1-9.763,6.884,45.532,45.532,0,0,1-11.94,2.273A45.3,45.3,0,0,0,256.806,178.282Z" transform="translate(-256.806 -164.323)" fill="#263238"/>
                    </g>
                  </g>
                  <g id="Group_298" data-name="Group 298" transform="translate(27.155 49.431)">
                    <g id="Group_297" data-name="Group 297">
                      <path id="Path_488" data-name="Path 488" d="M236.159,214.541a2.216,2.216,0,0,0,.622,1.245,4.808,4.808,0,0,0,3.405,1.662,7.418,7.418,0,0,0,5.267-1.983,4.733,4.733,0,0,0,1.609-3.049,3.348,3.348,0,0,0-1.71-3.3,2.649,2.649,0,0,0-3.485,1.234,2.258,2.258,0,0,0,.136,1.91,2.839,2.839,0,0,0,1.29,1.241,4.166,4.166,0,0,0,3.126.051,5.689,5.689,0,0,0,2.257-1.448,5.974,5.974,0,0,0,1.67-3.405,2.733,2.733,0,0,0-.08-1.387c-.066,0-.025.5-.2,1.338a6.075,6.075,0,0,1-1.754,3.082,5.275,5.275,0,0,1-2.08,1.238,3.585,3.585,0,0,1-2.637-.08,1.9,1.9,0,0,1-1.054-2.263,1.945,1.945,0,0,1,2.5-.84,2.651,2.651,0,0,1,1.3,2.583,4.091,4.091,0,0,1-1.354,2.6,7.047,7.047,0,0,1-4.777,1.957,4.717,4.717,0,0,1-3.216-1.333C236.392,214.985,236.221,214.511,236.159,214.541Z" transform="translate(-236.153 -207.308)" fill="#263238"/>
                    </g>
                  </g>
                </g>
              </g>
              <g id="Group_301" data-name="Group 301" transform="translate(57.219 216.301)">
                <path id="Path_489" data-name="Path 489" d="M303.954,392.225c0,.13-32.8.236-73.254.236s-73.261-.106-73.261-.236,32.794-.235,73.261-.235S303.954,392.1,303.954,392.225Z" transform="translate(-157.439 -391.99)" fill="#455a64"/>
              </g>
            </g>
          </g>
          <g id="Plant" transform="translate(86.708 308.264)">
            <g id="Group_312" data-name="Group 312">
              <g id="Group_303" data-name="Group 303" transform="translate(9.154)">
                <path id="Path_490" data-name="Path 490" d="M106.777,334.2a11.825,11.825,0,0,1,7.818,4.962,20.884,20.884,0,0,1,3.4,8.805c1.034,6.054-.583,12.935-2.812,18.657-6.183-2.877-9.5-10.063-10.947-13.813-2.294-5.928-2.841-18.035,2.543-18.612" transform="translate(-102.576 -334.196)" fill="#4a58b2"/>
              </g>
              <g id="Group_304" data-name="Group 304" transform="translate(29.15 24.393)">
                <path id="Path_491" data-name="Path 491" d="M125.856,377.236a10.088,10.088,0,0,1,.462-10.12,13.394,13.394,0,0,1,8.633-5.714c1.6-.335,3.434-.369,4.708.663a4.317,4.317,0,0,1,1.281,4.182,8.751,8.751,0,0,1-2.222,3.963c-3.5,3.923-7.605,7.077-12.861,7.026" transform="translate(-124.708 -361.193)" fill="#99a1d8"/>
              </g>
              <g id="Group_306" data-name="Group 306" transform="translate(28.358 31.256)">
                <g id="Group_305" data-name="Group 305">
                  <path id="Path_492" data-name="Path 492" d="M124.649,397.774a7.145,7.145,0,0,1-.173-1.254c-.09-.891-.206-2.043-.346-3.427a35.412,35.412,0,0,1,.347-11.372,21.675,21.675,0,0,1,5.164-10.092,14.7,14.7,0,0,1,2.654-2.227,8.909,8.909,0,0,1,.811-.476c.19-.1.293-.148.3-.135a23.115,23.115,0,0,0-3.534,3.052,22.367,22.367,0,0,0-4.961,9.978,38.137,38.137,0,0,0-.467,11.246c.1,1.45.174,2.627.205,3.44A6.615,6.615,0,0,1,124.649,397.774Z" transform="translate(-123.83 -368.788)" fill="#263238"/>
                </g>
              </g>
              <g id="Group_308" data-name="Group 308" transform="translate(14.582 9.183)">
                <g id="Group_307" data-name="Group 307">
                  <path id="Path_493" data-name="Path 493" d="M108.587,344.359a2.567,2.567,0,0,1,.212.509c.136.383.311.876.528,1.485.45,1.292,1.078,3.17,1.833,5.5,1.513,4.652,3.513,11.109,5.56,18.288s3.751,13.723,4.918,18.474c.585,2.375,1.041,4.3,1.34,5.636.136.632.248,1.141.334,1.539a2.65,2.65,0,0,1,.088.545,2.542,2.542,0,0,1-.174-.523l-.417-1.519c-.362-1.376-.863-3.276-1.476-5.6-1.245-4.729-3-11.253-5.042-18.43s-4-13.64-5.432-18.315c-.7-2.3-1.281-4.176-1.7-5.537-.184-.62-.333-1.12-.448-1.511A2.58,2.58,0,0,1,108.587,344.359Z" transform="translate(-108.584 -344.359)" fill="#263238"/>
                </g>
              </g>
              <g id="Group_309" data-name="Group 309" transform="translate(0 33.32)">
                <path id="Path_494" data-name="Path 494" d="M115.239,384.231A23.6,23.6,0,0,0,98.05,371.213c-1.878-.313-4.181-.205-5.181,1.415s-.059,3.74,1.1,5.253a20.165,20.165,0,0,0,21.293,6.866" transform="translate(-92.445 -371.073)" fill="#4a58b2"/>
              </g>
              <g id="Group_311" data-name="Group 311" transform="translate(8.015 38.779)">
                <g id="Group_310" data-name="Group 310">
                  <path id="Path_495" data-name="Path 495" d="M101.316,377.123a6.012,6.012,0,0,1,1.18.153,11.591,11.591,0,0,1,1.366.288c.523.148,1.138.264,1.78.509a20.586,20.586,0,0,1,2.1.8,23.262,23.262,0,0,1,2.318,1.135,26.24,26.24,0,0,1,4.783,3.469,25.684,25.684,0,0,1,3.8,4.527,22.3,22.3,0,0,1,1.279,2.243,19.149,19.149,0,0,1,.916,2.052,17.438,17.438,0,0,1,.6,1.754,10.391,10.391,0,0,1,.349,1.352,6.108,6.108,0,0,1,.2,1.173c-.1.024-.4-1.651-1.439-4.16a20.444,20.444,0,0,0-.951-2,23.537,23.537,0,0,0-1.293-2.188,26.748,26.748,0,0,0-3.761-4.426,27.278,27.278,0,0,0-4.682-3.438,24.431,24.431,0,0,0-2.264-1.155c-.717-.353-1.419-.6-2.053-.838C102.979,377.465,101.3,377.218,101.316,377.123Z" transform="translate(-101.316 -377.115)" fill="#263238"/>
                </g>
              </g>
            </g>
          </g>
          <g id="Light_bulb" data-name="Light bulb" transform="translate(277.094 65.328)">
            <g id="Group_328" data-name="Group 328">
              <path id="Path_496" data-name="Path 496" d="M345.849,74.1a40.109,40.109,0,0,0-39.361,56.269c4.656,10.506,13.677,18.723,17.678,29.495,2.744,7.387,2.947,15.534,5.738,22.9,5.738,15.14,23.254,24.775,39.113,21.515,9.524-1.958,18.088-7.911,27.793-8.515,10.415-.648,22.27,4.644,30.516-1.752,5.763-4.47,6.744-13.053,4.656-20.041s-6.59-12.949-10.283-19.237-6.7-13.558-5.334-20.722c1.241-6.493,5.842-11.755,8.737-17.7a35.463,35.463,0,0,0-34.394-50.905c-8.279.588-16.04,4.036-24,6.371s-11.939,2.6-20.855,2.319" transform="translate(-303.154 -65.328)" fill="#fff"/>
              <g id="Group_327" data-name="Group 327" transform="translate(26.338 19.198)">
                <g id="Group_319" data-name="Group 319" transform="translate(13.526 16.064)">
                  <path id="Path_497" data-name="Path 497" d="M369.963,104.383s-15.318-.147-20.591,13.156.769,19.734,3.129,23.648,8.69,12.426,8.743,20.446l20.581-.128a54.723,54.723,0,0,1,7.21-20.084c6.151-10.244,5.419-17.715,3.739-22.178S385.623,103.725,369.963,104.383Z" transform="translate(-347.273 -104.355)" fill="#fdf53f"/>
                  <g id="Group_313" data-name="Group 313" transform="translate(10.176 19.246)">
                    <path id="Path_498" data-name="Path 498" d="M375.72,162.983s-.025-.108-.061-.32-.082-.539-.145-.944c-.12-.845-.3-2.067-.52-3.636-.425-3.161-1.059-7.737-1.459-13.431-.093-1.424-.179-2.918-.22-4.474s-.088-3.179.018-4.863a13.6,13.6,0,0,1,1.2-5.076,7.711,7.711,0,0,1,3.917-3.846,5.2,5.2,0,0,1,5.527,1.108,3.867,3.867,0,0,1,1.159,2.8,4.954,4.954,0,0,1-1.068,2.9,6.635,6.635,0,0,1-2.467,1.953,12.968,12.968,0,0,1-3.031.974,36.451,36.451,0,0,1-6.427.686,37.445,37.445,0,0,1-6.456-.375,12.176,12.176,0,0,1-3.053-.914,7.892,7.892,0,0,1-2.545-1.848,5.943,5.943,0,0,1-1.449-2.734,4.605,4.605,0,0,1,.391-3.009,4.1,4.1,0,0,1,2.148-2.05,3.676,3.676,0,0,1,2.893.163,5.474,5.474,0,0,1,2.142,1.858,7.5,7.5,0,0,1,1.055,2.544,30.572,30.572,0,0,1,.464,5.193c.142,3.349.275,6.469.4,9.319.231,5.689.419,10.3.55,13.5.057,1.584.1,2.817.134,3.67q.016.614.026.954c0,.215,0,.326,0,.326s-.015-.11-.031-.324-.033-.544-.058-.953c-.045-.852-.109-2.085-.192-3.668-.155-3.2-.377-7.8-.651-13.491-.133-2.849-.277-5.969-.434-9.317a30.564,30.564,0,0,0-.473-5.142,7.22,7.22,0,0,0-1.019-2.445,5.183,5.183,0,0,0-2.03-1.755,3.378,3.378,0,0,0-2.664-.15,3.806,3.806,0,0,0-1.983,1.906,4.3,4.3,0,0,0-.362,2.812,5.624,5.624,0,0,0,1.379,2.59,9.18,9.18,0,0,0,5.422,2.66,37.355,37.355,0,0,0,6.4.369,36.252,36.252,0,0,0,6.37-.678,12.655,12.655,0,0,0,2.958-.947,6.329,6.329,0,0,0,2.356-1.86,4.647,4.647,0,0,0,1.008-2.72,3.562,3.562,0,0,0-1.067-2.579,4.9,4.9,0,0,0-5.206-1.049,7.437,7.437,0,0,0-3.774,3.7,13.359,13.359,0,0,0-1.183,4.972c-.111,1.664-.066,3.284-.036,4.838s.113,3.045.2,4.466c.37,5.687.97,10.266,1.358,13.43.2,1.572.354,2.8.461,3.644l.114.948C375.715,162.872,375.72,162.983,375.72,162.983Z" transform="translate(-358.536 -125.656)" fill="#263238"/>
                  </g>
                  <path id="Path_499" data-name="Path 499" d="M362.729,167.383l20.651-.322.22,13.042-5.993,7.16-7.921.34-6.706-8.012Z" transform="translate(-348.764 -110.403)" fill="#e0e0e0"/>
                  <path id="Path_500" data-name="Path 500" d="M378.335,189.238a5.573,5.573,0,0,0-4.14-1.675,5.45,5.45,0,0,0-3.917,2.036Z" transform="translate(-349.492 -112.379)" fill="#455a64"/>
                  <g id="Group_314" data-name="Group 314" transform="translate(14.523 65.998)">
                    <path id="Path_501" data-name="Path 501" d="M383.109,180.034a4.7,4.7,0,0,1-.748-.324c-.473-.221-1.167-.522-2.047-.833a20.02,20.02,0,0,0-14.224.3c-.865.347-1.546.678-2.01.918a4.575,4.575,0,0,1-.734.355,3.551,3.551,0,0,1,.673-.463A16.558,16.558,0,0,1,366,178.966a19,19,0,0,1,14.387-.3,16.526,16.526,0,0,1,2.024.932A3.563,3.563,0,0,1,383.109,180.034Z" transform="translate(-363.347 -177.397)" fill="#263238"/>
                  </g>
                  <g id="Group_315" data-name="Group 315" transform="translate(14.551 62.83)">
                    <path id="Path_502" data-name="Path 502" d="M383.139,176.528a4.613,4.613,0,0,1-.747-.324c-.473-.22-1.167-.522-2.047-.833a20.014,20.014,0,0,0-14.224.3c-.866.347-1.546.677-2.01.917a4.592,4.592,0,0,1-.733.355,3.606,3.606,0,0,1,.673-.463,16.69,16.69,0,0,1,1.984-1.016,19,19,0,0,1,14.386-.3,16.691,16.691,0,0,1,2.025.932A3.643,3.643,0,0,1,383.139,176.528Z" transform="translate(-363.378 -173.891)" fill="#263238"/>
                  </g>
                  <g id="Group_316" data-name="Group 316" transform="translate(14.393 59.818)">
                    <path id="Path_503" data-name="Path 503" d="M382.965,173.194a4.659,4.659,0,0,1-.748-.325c-.474-.22-1.167-.522-2.046-.832a20.023,20.023,0,0,0-14.225.3c-.865.347-1.545.677-2.01.917a4.649,4.649,0,0,1-.734.356,3.59,3.59,0,0,1,.674-.464,16.485,16.485,0,0,1,1.983-1.016,19.009,19.009,0,0,1,14.387-.3,16.535,16.535,0,0,1,2.025.933A3.538,3.538,0,0,1,382.965,173.194Z" transform="translate(-363.203 -170.557)" fill="#263238"/>
                  </g>
                  <g id="Group_317" data-name="Group 317" transform="translate(2.06 3.762)" opacity="0.2">
                    <path id="Path_504" data-name="Path 504" d="M358.975,141.618c-.284.319-1,.258-2.023-.274a11.691,11.691,0,0,1-3.592-3.19,17.969,17.969,0,0,1-3.166-6.5,19.082,19.082,0,0,1,3.758-17.156,17.954,17.954,0,0,1,5.592-4.579,11.7,11.7,0,0,1,4.6-1.4c1.155-.053,1.828.19,1.952.6.266.883-1.662,2.115-3.958,4.446a24.372,24.372,0,0,0-3.476,4.371,18.584,18.584,0,0,0-2.751,12.559,24.386,24.386,0,0,0,1.331,5.424C358.349,139,359.585,140.927,358.975,141.618Z" transform="translate(-349.553 -108.518)" fill="#fff"/>
                  </g>
                  <g id="Group_318" data-name="Group 318" transform="translate(12.334 40.961)" opacity="0.2">
                    <path id="Path_505" data-name="Path 505" d="M366.683,152.888a2.892,2.892,0,1,1-2.837-3.2A3.031,3.031,0,0,1,366.683,152.888Z" transform="translate(-360.924 -149.689)" fill="#fff"/>
                  </g>
                </g>
                <g id="Group_320" data-name="Group 320" transform="translate(0 12.206)">
                  <path id="Path_506" data-name="Path 506" d="M343.819,108.8c-.052.07-2.673-1.823-5.852-4.228s-5.715-4.412-5.663-4.482,2.673,1.823,5.853,4.229S343.872,108.727,343.819,108.8Z" transform="translate(-332.303 -100.085)" fill="#263238"/>
                </g>
                <g id="Group_321" data-name="Group 321" transform="translate(11.184 9.395)">
                  <path id="Path_507" data-name="Path 507" d="M349.342,102.759a21.888,21.888,0,0,1-2.452-2.792,21.791,21.791,0,0,1-2.206-2.992,22.026,22.026,0,0,1,2.452,2.793A21.947,21.947,0,0,1,349.342,102.759Z" transform="translate(-344.681 -96.974)" fill="#263238"/>
                </g>
                <g id="Group_322" data-name="Group 322" transform="translate(20.883 0.765)">
                  <path id="Path_508" data-name="Path 508" d="M359.8,100.518c-.082.027-1.129-2.881-2.338-6.5s-2.122-6.571-2.04-6.6,1.13,2.881,2.34,6.5S359.882,100.49,359.8,100.518Z" transform="translate(-355.415 -87.423)" fill="#263238"/>
                </g>
                <g id="Group_323" data-name="Group 323" transform="translate(35.901 4.736)">
                  <path id="Path_509" data-name="Path 509" d="M372.982,98.444a17.731,17.731,0,0,1-.616-3.291,17.92,17.92,0,0,1-.3-3.335,17.8,17.8,0,0,1,.616,3.292A17.908,17.908,0,0,1,372.982,98.444Z" transform="translate(-372.036 -91.818)" fill="#263238"/>
                </g>
                <g id="Group_324" data-name="Group 324" transform="translate(48.193)">
                  <path id="Path_510" data-name="Path 510" d="M385.645,101.858c-.084-.023.792-3.463,1.959-7.683s2.18-7.622,2.264-7.6-.793,3.462-1.96,7.684S385.729,101.881,385.645,101.858Z" transform="translate(-385.64 -86.576)" fill="#263238"/>
                </g>
                <g id="Group_325" data-name="Group 325" transform="translate(57.767 13.753)">
                  <path id="Path_511" data-name="Path 511" d="M396.241,108.054a22.308,22.308,0,0,1,1.922-3.215,22.34,22.34,0,0,1,2.186-3.041,22.209,22.209,0,0,1-1.922,3.215A22.248,22.248,0,0,1,396.241,108.054Z" transform="translate(-396.236 -101.797)" fill="#263238"/>
                </g>
                <g id="Group_326" data-name="Group 326" transform="translate(60.862 18.03)">
                  <path id="Path_512" data-name="Path 512" d="M411.729,106.533c.051.071-2.609,2.077-5.941,4.481s-6.075,4.3-6.126,4.225,2.609-2.077,5.942-4.482S411.678,106.462,411.729,106.533Z" transform="translate(-399.661 -106.531)" fill="#263238"/>
                </g>
              </g>
            </g>
          </g>
        </g>
      </g>
    </g>
  </g>
</svg>
