<svg xmlns="http://www.w3.org/2000/svg" width="150" height="150" viewBox="0 0 150 150">
  <g id="Group_386" data-name="Group 386" transform="translate(-885 -1449)">
    <circle id="Ellipse_7" data-name="Ellipse 7" cx="75" cy="75" r="75" transform="translate(885 1449)" fill="#fff"/>
    <g id="synergy" transform="translate(913 1477)">
      <g id="Group_384" data-name="Group 384" transform="translate(2.482 2.482)">
        <g id="Group_358" data-name="Group 358" transform="translate(29.642 74.105)">
          <path id="Path_518" data-name="Path 518" d="M51.642,66.821H22a14.821,14.821,0,0,1,29.642,0Z" transform="translate(-22 -52)" fill="#2e397b"/>
        </g>
        <g id="Group_359" data-name="Group 359" transform="translate(0 74.105)">
          <path id="Path_519" data-name="Path 519" d="M31.642,66.821H2a14.821,14.821,0,0,1,29.642,0Z" transform="translate(-2 -52)" fill="#fcd770"/>
        </g>
        <g id="Group_360" data-name="Group 360" transform="translate(59.284 74.105)">
          <path id="Path_520" data-name="Path 520" d="M71.642,66.821H42a14.821,14.821,0,0,1,29.642,0Z" transform="translate(-42 -52)" fill="#fcd770"/>
        </g>
        <g id="Group_361" data-name="Group 361" transform="translate(0 34.088)">
          <path id="Path_521" data-name="Path 521" d="M16.821,30.928V41.3H2V32.914a7.407,7.407,0,0,1,6.358-7.336L12.375,25Z" transform="translate(-2 -25)" fill="#fdf53f"/>
        </g>
        <g id="Group_362" data-name="Group 362" transform="translate(14.821 34.088)">
          <path id="Path_522" data-name="Path 522" d="M28.3,41.3H12V30.928L16.446,25l4.016.578a7.455,7.455,0,0,1,1.912.534v7.425a4.468,4.468,0,0,0,1.3,3.142Z" transform="translate(-12 -25)" fill="#fdf53f"/>
        </g>
        <g id="Group_363" data-name="Group 363" transform="translate(25.196 11.857)">
          <path id="Path_523" data-name="Path 523" d="M32.339,44.088,26.41,50.017l-1.482-1.482L20.3,43.91A4.468,4.468,0,0,1,19,40.768v-7.9a8.9,8.9,0,0,1,8-8.848l2.549-.252,2.786,6.981,5.928-2.964L44.2,30.749l2.964-7.41h7.41V10h8.893V25.8a7.4,7.4,0,0,1-3.705,6.417,7.067,7.067,0,0,1-2.653.919l-4.016.578V48.534H47.16V38.16a1.486,1.486,0,0,0-1.482-1.482H33.821a1.486,1.486,0,0,0-1.482,1.482Z" transform="translate(-19 -10)" fill="#99a1d8"/>
        </g>
        <g id="Group_364" data-name="Group 364" transform="translate(38.534 38.534)">
          <path id="Path_524" data-name="Path 524" d="M32.446,41.591a4.2,4.2,0,0,0-1.23-2.964L28,35.41V29.482A1.486,1.486,0,0,1,29.482,28H41.339a1.486,1.486,0,0,1,1.482,1.482V44.3a1.486,1.486,0,0,1-1.482,1.482H28.252a4.2,4.2,0,0,0,4.194-4.194Z" transform="translate(-28 -28)" fill="#e6e9ed"/>
        </g>
        <g id="Group_365" data-name="Group 365" transform="translate(35.748 25.196)">
          <path id="Path_525" data-name="Path 525" d="M34.835,23.446,28.906,26.41,26.12,19.43,30.388,19Z" transform="translate(-26.12 -19)" fill="#99a1d8"/>
        </g>
        <g id="Group_366" data-name="Group 366" transform="translate(44.463 25.196)">
          <path id="Path_526" data-name="Path 526" d="M40.893,19l-2.964,7.41L32,23.446,36.446,19Z" transform="translate(-32 -19)" fill="#99a1d8"/>
        </g>
        <g id="Group_367" data-name="Group 367" transform="translate(59.284 34.073)">
          <path id="Path_527" data-name="Path 527" d="M51.634,30.933l5.187,10.375H42V26.487l4.016-.578a7.067,7.067,0,0,0,2.653-.919Z" transform="translate(-42 -24.99)" fill="#2e397b"/>
        </g>
        <g id="Group_368" data-name="Group 368" transform="translate(74.105 31.865)">
          <path id="Path_528" data-name="Path 528" d="M66.821,30.673V42.026H52l5.187-10.375L61.263,23.5a7.417,7.417,0,0,1,5.528,6.477Z" transform="translate(-52 -23.5)" fill="#2e397b"/>
        </g>
        <g id="Group_369" data-name="Group 369" transform="translate(68.917 40.017)">
          <path id="Path_529" data-name="Path 529" d="M58.875,29,53.687,39.375,48.5,29Z" transform="translate(-48.5 -29)" fill="#ccd1d9"/>
        </g>
        <g id="Group_370" data-name="Group 370" transform="translate(4.446 8.893)">
          <path id="Path_530" data-name="Path 530" d="M25.749,16.389a8.392,8.392,0,0,1-2.46,5.928l-.5.5V20.805A2.965,2.965,0,0,0,20.4,17.9l-2.119-.43a3.617,3.617,0,0,1-2.9-3.542,3.617,3.617,0,0,1-2.9,3.542l-2.119.43a2.965,2.965,0,0,0-2.386,2.9v2.016l-.5-.5A8.384,8.384,0,0,1,13.389,8h3.972a8.4,8.4,0,0,1,8.389,8.389Z" transform="translate(-5 -8)" fill="#909090"/>
        </g>
        <g id="Group_371" data-name="Group 371" transform="translate(34.088)">
          <path id="Path_531" data-name="Path 531" d="M32.455,8.284a5.942,5.942,0,0,0-4.491,5.751v2.786l-.5-.5A8.389,8.389,0,0,1,33.389,2h9.4a2.973,2.973,0,0,1,2.964,2.964V7.573a5.355,5.355,0,0,1-2.964,4.8l-1.867-.459a15.174,15.174,0,0,1-7.025-3.987Z" transform="translate(-25 -2)" fill="#909090"/>
        </g>
        <g id="Group_372" data-name="Group 372" transform="translate(69.569 5.928)">
          <path id="Path_532" data-name="Path 532" d="M67.377,18.746l.889,19.667a7.417,7.417,0,0,0-5.528-6.477,6.364,6.364,0,0,0-.8-.163l-1.289-.193a4.445,4.445,0,0,1-3.6-2.994l-.356-1.067a7.4,7.4,0,0,0,4.194-6.684V18.687a2.952,2.952,0,0,0-2.238-2.875l-2.045-.5a10.06,10.06,0,0,1-3.053-1.349l-.578-.385a9.529,9.529,0,0,0-3.942-1.527V7.482a4.524,4.524,0,0,0-.089-.889A13.387,13.387,0,0,1,52.9,6h1.156A13.329,13.329,0,0,1,67.377,18.746Z" transform="translate(-48.94 -6)" fill="#656d78"/>
        </g>
        <g id="Group_373" data-name="Group 373" transform="translate(5.928 56.32)">
          <path id="Path_533" data-name="Path 533" d="M17.857,57.637a6.984,6.984,0,0,1-1.482.148H13.41a6.984,6.984,0,0,1-1.482-.148A7.411,7.411,0,0,1,6,50.375V48.893a8.893,8.893,0,1,1,17.785,0v1.482A7.411,7.411,0,0,1,17.857,57.637Z" transform="translate(-6 -40)" fill="#656d78"/>
        </g>
        <g id="Group_374" data-name="Group 374" transform="translate(35.57 56.32)">
          <path id="Path_534" data-name="Path 534" d="M37.857,57.637a6.984,6.984,0,0,1-1.482.148H33.41a6.984,6.984,0,0,1-1.482-.148A7.411,7.411,0,0,1,26,50.375V48.893a8.893,8.893,0,1,1,17.785,0v1.482A7.411,7.411,0,0,1,37.857,57.637Z" transform="translate(-26 -40)" fill="#656d78"/>
        </g>
        <g id="Group_375" data-name="Group 375" transform="translate(65.212 56.32)">
          <path id="Path_535" data-name="Path 535" d="M57.857,57.637a6.984,6.984,0,0,1-1.482.148H53.41a6.984,6.984,0,0,1-1.482-.148A7.411,7.411,0,0,1,46,50.375V48.893a8.893,8.893,0,1,1,17.785,0v1.482A7.411,7.411,0,0,1,57.857,57.637Z" transform="translate(-46 -40)" fill="#656d78"/>
        </g>
        <g id="Group_376" data-name="Group 376" transform="translate(10.375 30.398)">
          <path id="Path_536" data-name="Path 536" d="M10.23,22.51l3.216.726a7.475,7.475,0,0,0,3.216-.726l1.23,3.69-4.446,5.928L9,26.2Z" transform="translate(-9 -22.51)" fill="#f0d0b4"/>
        </g>
        <g id="Group_377" data-name="Group 377" transform="translate(7.41 14.821)">
          <path id="Path_537" data-name="Path 537" d="M21.821,20.893a7.389,7.389,0,0,1-7.41,7.41l-3.216-.726-2.03-1.438A7.443,7.443,0,0,1,7,20.893V18.877a2.965,2.965,0,0,1,2.386-2.9l2.119-.43A3.617,3.617,0,0,0,14.41,12a3.617,3.617,0,0,0,2.9,3.542l2.119.43a2.965,2.965,0,0,1,2.386,2.9Z" transform="translate(-7 -12)" fill="#f0d0b4"/>
        </g>
        <g id="Group_378" data-name="Group 378" transform="translate(65.953 26.707)">
          <path id="Path_538" data-name="Path 538" d="M63.915,25.178l-4.076,8.152H49.464L46.5,27.386a7.4,7.4,0,0,0,3.705-6.417V20.02A7.453,7.453,0,0,0,54.652,21.5a7.276,7.276,0,0,0,3.216-.741l.356,1.067a4.445,4.445,0,0,0,3.6,2.994l1.289.193A6.364,6.364,0,0,1,63.915,25.178Z" transform="translate(-46.5 -20.02)" fill="#f0d0b4"/>
        </g>
        <g id="Group_379" data-name="Group 379" transform="translate(69.658 11.975)">
          <path id="Path_539" data-name="Path 539" d="M60.857,16.72v2.149a7.4,7.4,0,0,1-4.194,6.684,7.276,7.276,0,0,1-3.216.741A7.453,7.453,0,0,1,49,24.812V10.08a9.529,9.529,0,0,1,3.942,1.527l.578.385a10.06,10.06,0,0,0,3.053,1.349l2.045.5A2.952,2.952,0,0,1,60.857,16.72Z" transform="translate(-49 -10.08)" fill="#f0d0b4"/>
        </g>
        <g id="Group_380" data-name="Group 380" transform="translate(60.766 2.964)">
          <path id="Path_540" data-name="Path 540" d="M51.893,8.446v4.446H43V8.446a4.447,4.447,0,0,1,8.8-.889A4.524,4.524,0,0,1,51.893,8.446Z" transform="translate(-43 -4)" fill="#f0d0b4"/>
        </g>
        <g id="Group_381" data-name="Group 381" transform="translate(32.606 45.945)">
          <path id="Path_541" data-name="Path 541" d="M33.145,36.216a4.192,4.192,0,1,1-5.928,5.928L24,38.928,29.928,33Z" transform="translate(-24 -33)" fill="#f0d0b4"/>
        </g>
        <g id="Group_382" data-name="Group 382" transform="translate(40.017 21.505)">
          <path id="Path_542" data-name="Path 542" d="M30.23,16.51l3.216.726a7.475,7.475,0,0,0,3.216-.726l1.23,3.69-4.446,4.446L29,20.2Z" transform="translate(-29 -16.51)" fill="#f0d0b4"/>
        </g>
        <g id="Group_383" data-name="Group 383" transform="translate(37.052 5.928)">
          <path id="Path_543" data-name="Path 543" d="M41.821,14.893a7.389,7.389,0,0,1-7.41,7.41l-3.216-.726-2.03-1.438A7.443,7.443,0,0,1,27,14.893V12.106a5.942,5.942,0,0,1,4.491-5.751L32.928,6a15.174,15.174,0,0,0,7.025,3.987l1.867.459Z" transform="translate(-27 -6)" fill="#f0d0b4"/>
        </g>
      </g>
      <g id="Group_385" data-name="Group 385" transform="translate(1 1)">
        <path id="Path_544" data-name="Path 544" d="M57.32,57.32V54.355H92.89V41.514c0-.022-.006-.044-.006-.067h0l-.911-20.362A14.8,14.8,0,0,0,77.171,6.928H76a14.808,14.808,0,0,0-3.016.348A5.911,5.911,0,0,0,61.766,9.893V26.2H52.46l-.514-1.544A8.892,8.892,0,0,0,55.837,17.3V13.7A6.8,6.8,0,0,0,58.8,8.061V5.446A4.452,4.452,0,0,0,54.355,1h-9.4a9.866,9.866,0,0,0-6.976,16.843l.107.107a8.893,8.893,0,0,0,3.859,6.7L41.4,26.3l-5.859.585a10.33,10.33,0,0,0-9.229,8.864c-.113-.021-.222-.055-.336-.071l-3.1-.443-.563-1.69a8.9,8.9,0,0,0,3.861-6.7l.107-.107A9.867,9.867,0,0,0,19.293,9.893H15.311A9.866,9.866,0,0,0,8.336,26.735l.107.107a8.891,8.891,0,0,0,3.861,6.7l-.563,1.69-3.1.443A8.938,8.938,0,0,0,1,44.479v9.877H32.992l4.267,4.267A5.631,5.631,0,0,0,39.9,60.1a10.33,10.33,0,0,0-3.333,7.6v1.482a8.885,8.885,0,0,0,3.837,7.307,16.382,16.382,0,0,0-8.283,8.174,16.376,16.376,0,0,0-8.289-8.168,8.889,8.889,0,0,0,3.843-7.313V67.694a10.375,10.375,0,1,0-20.749,0v1.482a8.885,8.885,0,0,0,3.837,7.307A16.321,16.321,0,0,0,1,91.408V92.89H92.89V91.408a16.321,16.321,0,0,0-9.766-14.925,8.885,8.885,0,0,0,3.837-7.307V67.694a10.375,10.375,0,1,0-20.749,0v1.482a8.884,8.884,0,0,0,3.843,7.311,16.382,16.382,0,0,0-8.289,8.168,16.393,16.393,0,0,0-8.283-8.174,8.88,8.88,0,0,0,3.837-7.305V67.694a10.335,10.335,0,0,0-3.129-7.41h.165A2.967,2.967,0,0,0,57.32,57.32ZM76.587,29.183a5.859,5.859,0,0,1-2.964-.811v-12a8.32,8.32,0,0,1,1.644.845l.569.379a11.231,11.231,0,0,0,3.518,1.556l2.038.51A1.479,1.479,0,0,1,82.515,21.1v2.153a5.938,5.938,0,0,1-5.928,5.93Zm-3.1,2.391a8.855,8.855,0,0,0,3.093.574h.006a8.785,8.785,0,0,0,2.317-.319,5.885,5.885,0,0,0,4.636,3.633l.086.012-2.77,5.543H72.315l-1.989-3.979a8.948,8.948,0,0,0,3.164-5.463Zm5.885,12.407-2.789,5.579L73.8,43.981ZM67.739,38.493l6.45,12.9H63.248V39.337l2.74-.391A8.7,8.7,0,0,0,67.739,38.493Zm11.246,12.9L86.579,36.2a5.947,5.947,0,0,1,3.344,5.279l0,.067v9.841Zm-1.814-41.5A11.836,11.836,0,0,1,89.016,21.22l.6,13.423a8.833,8.833,0,0,0-4.362-1.931l-1.292-.185A2.945,2.945,0,0,1,81.6,30.591a8.89,8.89,0,0,0,3.879-7.339V21.1a4.443,4.443,0,0,0-3.367-4.314l-2.038-.51a8.29,8.29,0,0,1-2.594-1.147l-.569-.379a11.375,11.375,0,0,0-3.289-1.49v-3.1A11.858,11.858,0,0,1,76,9.893ZM67.694,6.928a2.967,2.967,0,0,1,2.964,2.964v2.964H64.73V9.893A2.967,2.967,0,0,1,67.694,6.928ZM53.648,29.16,52.1,33.043l-2.648-1.325L52,29.16Zm-15.332-16.5a6.812,6.812,0,0,1,6.638-8.691h9.4a1.485,1.485,0,0,1,1.482,1.482V8.061a3.828,3.828,0,0,1-1.752,3.2l-1.232-.308a13.634,13.634,0,0,1-6.342-3.591l-.593-.593-2.251.563A7.379,7.379,0,0,0,38.316,12.655Zm2.7,1.866a4.44,4.44,0,0,1,3.367-4.313l.649-.162a16.613,16.613,0,0,0,7.1,3.784l.738.184V17.3a5.928,5.928,0,1,1-11.857,0ZM46.945,26.2a8.888,8.888,0,0,0,2.287-.308l.464,1.392-2.751,2.749-2.751-2.751.464-1.39a8.888,8.888,0,0,0,2.287.308Zm-5,3.026,2.5,2.5-2.649,1.325L40.33,29.385ZM29.16,37.208a7.388,7.388,0,0,1,6.672-7.373l1.427-.142,2.978,7.443,6.708-3.354,6.706,3.352,3.189-7.974H64.73V15.821h5.928V30.144a5.959,5.959,0,0,1-5.091,5.869l-5.284.754V51.391H57.32V42.5a2.967,2.967,0,0,0-2.964-2.964H42.5A2.967,2.967,0,0,0,39.534,42.5v2.351l-3.4-3.4-2.1,2.1,4.881,4.881L35.088,52.26l-5.06-5.06a2.945,2.945,0,0,1-.869-2.1ZM8.88,22.23a6.875,6.875,0,0,1,6.432-9.373h3.982a6.875,6.875,0,0,1,6.431,9.373,4.441,4.441,0,0,0-3.1-2.41L20.5,19.4A2.141,2.141,0,0,1,18.785,17.3V15.821H15.821V17.3A2.141,2.141,0,0,1,14.106,19.4l-2.121.424a4.437,4.437,0,0,0-3.1,2.41Zm2.494,1.95a1.486,1.486,0,0,1,1.192-1.454l2.121-.424A5.081,5.081,0,0,0,17.3,20.891,5.075,5.075,0,0,0,19.919,22.3l2.121.424a1.486,1.486,0,0,1,1.192,1.454v2.013a5.928,5.928,0,1,1-11.857,0ZM17.3,35.088h.006a8.81,8.81,0,0,0,2.284-.31L20.1,36.3l-2.8,3.726-2.8-3.726.508-1.524a8.81,8.81,0,0,0,2.284.31ZM3.964,44.479A5.959,5.959,0,0,1,9.055,38.61l3.144-.449,3.622,4.832v8.4H3.964Zm14.821,6.912v-8.4l3.624-4.832,3.144.449a5.9,5.9,0,0,1,.643.136V45.1A5.891,5.891,0,0,0,27.933,49.3l2.1,2.1Zm18.4,2.964,3.833-3.833,2.171,2.171A2.71,2.71,0,0,1,41.27,57.32a2.694,2.694,0,0,1-1.916-.793ZM9.893,67.694a7.41,7.41,0,1,1,14.821,0v1.482a5.909,5.909,0,0,1-2.964,5.1v-5.1H18.785V75.1H15.821V69.176H12.857v5.1a5.909,5.909,0,0,1-2.964-5.1ZM4.046,89.926a13.34,13.34,0,0,1,26.515,0ZM69.176,67.694a7.41,7.41,0,1,1,14.821,0v1.482a5.909,5.909,0,0,1-2.964,5.1v-5.1H78.069V75.1H75.1V69.176H72.14v5.1a5.909,5.909,0,0,1-2.964-5.1Zm7.41,10.375A13.358,13.358,0,0,1,89.844,89.926H63.329A13.358,13.358,0,0,1,76.587,78.069ZM60.2,89.926h-26.5a13.333,13.333,0,0,1,26.5,0ZM54.355,67.694v1.482a5.909,5.909,0,0,1-2.964,5.1v-5.1H48.427V75.1H45.463V69.176H42.5v5.1a5.909,5.909,0,0,1-2.964-5.1V67.694a7.41,7.41,0,1,1,14.821,0ZM46.225,57.32a5.6,5.6,0,0,0,.72-2.709c0-.086-.021-.169-.025-.255h4.471V51.391H45.936a5.812,5.812,0,0,0-.652-.793L42.5,47.813V42.5H54.355V57.32Z" transform="translate(-1 -1)"/>
        <path id="Path_545" data-name="Path 545" d="M31,31h5.928v2.964H31Z" transform="translate(13.463 13.463)"/>
      </g>
    </g>
  </g>
</svg>
