<svg xmlns="http://www.w3.org/2000/svg" width="248" height="63.281" viewBox="0 0 248 63.281">
  <g id="Group_348" data-name="Group 348" transform="translate(-57 -40)">
    <text id="DevCollab" transform="translate(133 52)" fill="#4463CC" font-size="30" font-family="Montserrat-SemiBold, Montserrat" font-weight="600"><tspan x="0" y="29">DevCollab</tspan></text>
    <g id="Group_12" data-name="Group 12" transform="translate(-244 -72)">
      <g id="Path_9" data-name="Path 9" transform="translate(301 112)" fill="none">
        <path d="M31.429,0A31.641,31.641,0,1,1,0,31.64,31.535,31.535,0,0,1,31.429,0Z" stroke="none"/>
        <path d="M 31.42940902709961 4.000003814697266 C 27.72801971435547 4.000003814697266 24.13923263549805 4.728992462158203 20.76272583007813 6.166721343994141 C 17.49763107299805 7.557003021240234 14.56401062011719 9.548603057861328 12.04332733154297 12.0861930847168 C 9.520820617675781 14.62563705444336 7.540573120117188 17.58223724365234 6.157608032226563 20.87387466430664 C 4.725925445556641 24.28148651123047 3.999996185302734 27.90385055541992 3.999996185302734 31.64034461975098 C 3.999996185302734 35.37683868408203 4.725925445556641 38.99920272827148 6.157608032226563 42.40681457519531 C 7.540573120117188 45.69844818115234 9.520820617675781 48.65505218505859 12.04332733154297 51.19449615478516 C 14.56401062011719 53.73208618164063 17.49763107299805 55.72368621826172 20.76272583007813 57.11396789550781 C 24.13923263549805 58.55169677734375 27.72801971435547 59.28068542480469 31.42940902709961 59.28068542480469 C 35.13079833984375 59.28068542480469 38.71958541870117 58.55169677734375 42.09609222412109 57.11396789550781 C 45.36118316650391 55.72368621826172 48.29480743408203 53.73208618164063 50.81549072265625 51.19449615478516 C 53.33799743652344 48.65505218505859 55.31823348999023 45.69844818115234 56.70119857788086 42.40681457519531 C 58.13289260864258 38.99920272827148 58.85882186889648 35.37683868408203 58.85882186889648 31.64034461975098 C 58.85882186889648 27.90385055541992 58.13289260864258 24.28148651123047 56.70119857788086 20.87387466430664 C 55.31823348999023 17.58223724365234 53.33799743652344 14.62563705444336 50.81549072265625 12.0861930847168 C 48.29480743408203 9.548603057861328 45.36118316650391 7.557003021240234 42.09609222412109 6.166721343994141 C 38.71958541870117 4.728992462158203 35.13079833984375 4.000003814697266 31.42940902709961 4.000003814697266 M 31.42940902709961 3.814697265625e-06 C 48.78738403320313 3.814697265625e-06 62.85882186889648 14.16586303710938 62.85882186889648 31.64034461975098 C 62.85882186889648 49.11482620239258 48.78738403320313 63.28068542480469 31.42940902709961 63.28068542480469 C 14.0714225769043 63.28068542480469 -3.814697265625e-06 49.11482620239258 -3.814697265625e-06 31.64034461975098 C -3.814697265625e-06 14.16586303710938 14.0714225769043 3.814697265625e-06 31.42940902709961 3.814697265625e-06 Z" stroke="none" fill="#4463CC"/>
      </g>
      <g id="Group_3" data-name="Group 3" transform="translate(309.019 129.719)">
        <circle id="Ellipse_2" data-name="Ellipse 2" cx="6.5" cy="6.5" r="6.5" transform="translate(-0.019 7.281)" fill="#4463CC"/>
        <g id="Group_2" data-name="Group 2" transform="translate(25.942)">
          <circle id="Ellipse_3" data-name="Ellipse 3" cx="6.5" cy="6.5" r="6.5" transform="translate(9.039 7.281)" fill="#4463CC"/>
          <path id="Path_7" data-name="Path 7" d="M41.5,0c9.669,0,17.508,6.233,17.508,13.922S51.169,27.844,41.5,27.844" transform="translate(-41.5)" fill="none" stroke="#4463CC" stroke-width="4"/>
        </g>
        <path id="Path_8" data-name="Path 8" d="M59.008,0C49.338,0,41.5,6.233,41.5,13.922s7.838,13.922,17.508,13.922" transform="translate(-37.495)" fill="none" stroke="#4463CC" stroke-width="4"/>
      </g>
    </g>
  </g>
</svg>
