<svg xmlns="http://www.w3.org/2000/svg" width="150" height="150" viewBox="0 0 150 150">
  <g id="Group_111" data-name="Group 111" transform="translate(-505 -1199)">
    <circle id="Ellipse_6" data-name="Ellipse 6" cx="75" cy="75" r="75" transform="translate(505 1199)" fill="#fff"/>
    <g id="monitoring" transform="translate(531 1225)">
      <g id="Group_108" data-name="Group 108" transform="translate(2.549 2.549)">
        <g id="Group_95" data-name="Group 95" transform="translate(3.099 63.529)">
          <path id="Path_318" data-name="Path 318" d="M37.19,72.44H4V59.595A16.629,16.629,0,0,1,20.595,43a16.883,16.883,0,0,1,2,.124A16.611,16.611,0,0,1,37.019,57.255l1.069,7.438.046.124,7.453-3.393,3.068,6.911-6.787,3.1A11.347,11.347,0,0,1,37.19,72.44Z" transform="translate(-4 -43)" fill="#fdf53f"/>
        </g>
        <g id="Group_96" data-name="Group 96" transform="translate(48.53 75.924)">
          <path id="Path_319" data-name="Path 319" d="M39.673,60.281c.852-1.782.9-2.092.9-2.417A3.769,3.769,0,0,0,36.806,54.1h-.062a3.653,3.653,0,0,0-1.565.341l-1.859.837A8.932,8.932,0,0,1,40.943,51h2.727a6.182,6.182,0,0,1,3.1.837,6.547,6.547,0,0,1,1.286.976A6.237,6.237,0,0,1,49.868,57.2a3.108,3.108,0,0,1-3.1,3.1H39.688Z" transform="translate(-33.32 -51)" fill="#4a58b2"/>
        </g>
        <g id="Group_97" data-name="Group 97" transform="translate(46.484 69.727)">
          <path id="Path_320" data-name="Path 320" d="M34.045,57.474l-.015.015L32,58.4V47H47.495v7.035a6.181,6.181,0,0,0-3.1-.837H41.669a8.932,8.932,0,0,0-7.623,4.277Z" transform="translate(-32 -47)" fill="#fff"/>
        </g>
        <g id="Group_98" data-name="Group 98" transform="translate(21.197 57.331)">
          <path id="Path_321" data-name="Path 321" d="M87.452,39v6.2a6.2,6.2,0,0,1-6.2,6.2H27.1a16.521,16.521,0,0,0-10.924-6.074V40.549h-.5a4.937,4.937,0,0,0,3.486-1.441L19.275,39Z" transform="translate(-15.68 -39)" fill="#fff"/>
        </g>
        <g id="Group_99" data-name="Group 99" transform="translate(22.529 17.044)">
          <path id="Path_322" data-name="Path 322" d="M80.781,13H24.907A15.431,15.431,0,0,1,16.54,25.256,6.219,6.219,0,0,1,18.8,30.044h4.648a3.1,3.1,0,0,1,3.1,3.1,3.122,3.122,0,0,1-3.1,3.1H18.8l1.317,13.171c.015.155.015.325.015.48A4.955,4.955,0,0,1,18.8,53.286H86.979V19.2A6.2,6.2,0,0,0,80.781,13Z" transform="translate(-16.54 -13)" fill="#99a1d8"/>
        </g>
        <g id="Group_100" data-name="Group 100" transform="translate(56.165 1.529)">
          <ellipse id="Ellipse_5" data-name="Ellipse 5" cx="15" cy="15.5" rx="15" ry="15.5" transform="translate(0.286 -0.078)" fill="#fff"/>
        </g>
        <g id="Group_101" data-name="Group 101" transform="translate(38.737 41.836)">
          <path id="Path_323" data-name="Path 323" d="M27,29H39.4v9.3H27Z" transform="translate(-27 -29)" fill="#99a1d8"/>
        </g>
        <g id="Group_102" data-name="Group 102">
          <path id="Path_324" data-name="Path 324" d="M32.9,19.044A15.431,15.431,0,0,1,24.529,31.3a6.171,6.171,0,0,0-3.936-1.41H14.4a9.16,9.16,0,0,0-4.447,1.131A15.492,15.492,0,1,1,32.99,17.495,12.8,12.8,0,0,1,32.9,19.044Z" transform="translate(-2 -2)" fill="#fff"/>
        </g>
        <g id="Group_103" data-name="Group 103" transform="translate(3.099 40.286)">
          <path id="Path_325" data-name="Path 325" d="M13.3,38.846v7.747A13.6,13.6,0,0,1,4,33.687V28h9.3L11.84,29.457a5.611,5.611,0,0,0,0,7.933Z" transform="translate(-4 -28)" fill="#656d78"/>
        </g>
        <g id="Group_104" data-name="Group 104" transform="translate(3.099 27.891)">
          <path id="Path_326" data-name="Path 326" d="M25.693,26.2H21.416a3.113,3.113,0,0,0-2.774,1.7L16.4,32.4H4V29.3a9.321,9.321,0,0,1,4.85-8.166A9.16,9.16,0,0,1,13.3,20h6.2a6.2,6.2,0,0,1,6.2,6.2Z" transform="translate(-4 -20)" fill="#fff"/>
        </g>
        <g id="Group_105" data-name="Group 105" transform="translate(15.495 34.089)">
          <path id="Path_327" data-name="Path 327" d="M25.945,24a3.1,3.1,0,0,1,3.1,3.1,3.122,3.122,0,0,1-3.1,3.1H12L14.247,25.7A3.113,3.113,0,0,1,17.02,24h8.925Z" transform="translate(-12 -24)" fill="#fff"/>
        </g>
        <g id="Group_106" data-name="Group 106" transform="translate(44.687 79.023)">
          <path id="Path_328" data-name="Path 328" d="M38.169,53a3.769,3.769,0,0,1,3.765,3.765c0,.325-.046.635-.9,2.417a3.6,3.6,0,0,1-1.317,1.023l-5.811,2.634L30.84,55.929l1.8-.821,2.03-.914.015-.015,1.859-.837A3.653,3.653,0,0,1,38.107,53Z" transform="translate(-30.84 -53)" fill="#f0d0b4"/>
        </g>
        <g id="Group_107" data-name="Group 107" transform="translate(9.297 40.286)">
          <path id="Path_329" data-name="Path 329" d="M11.1,46.594V38.846L9.642,37.39a5.611,5.611,0,0,1,0-7.933L11.1,28h12.4l1.317,13.171c.015.155.015.325.015.48a4.955,4.955,0,0,1-1.333,3.393l-.108.108A4.937,4.937,0,0,1,19.9,46.594h.5v4.772a16.885,16.885,0,0,0-2-.124,16.445,16.445,0,0,0-7.236,1.673l-.062-.124Z" transform="translate(-8 -28)" fill="#f0d0b4"/>
        </g>
      </g>
      <g id="Group_109" data-name="Group 109" transform="translate(1 1)">
        <path id="Path_330" data-name="Path 330" d="M17.4,13.637l1.982,5.947h7.315v-3.1H21.612L17.4,3.838,12.459,18.645l-1.853-3.709H5v3.1H8.691l4.345,8.686Z" transform="translate(1.198 0.559)" fill="#4a58b2"/>
        <path id="Path_331" data-name="Path 331" d="M89.32,73.826a7.756,7.756,0,0,0,7.747-7.747V25.792a7.756,7.756,0,0,0-6.269-7.6,17.032,17.032,0,0,0-33.938-.149H35.089A17.044,17.044,0,1,0,7.762,31.633a10.81,10.81,0,0,0-3.663,8.1V48.53A15.119,15.119,0,0,0,13.4,62.5v4.351A18.152,18.152,0,0,0,4.1,82.675V97.068H39.514v-.036a12.74,12.74,0,0,0,4.639-1.116l12.607-5.73a5.281,5.281,0,0,0,1.326-.866h6.443a4.642,4.642,0,0,0,4.363-3.1H92.419a4.648,4.648,0,1,0,0-9.3h-9.3a1.55,1.55,0,0,1-1.549-1.549V73.826Zm0-3.1H35.845a18.257,18.257,0,0,0-10.053-5.834V62.615a6.473,6.473,0,0,0,2.113-1.185H93.969v4.648A4.654,4.654,0,0,1,89.32,70.727Zm-27.891,6.2H58.7a10.538,10.538,0,0,0-8.113,3.837V73.826h12.4v3.255A7.74,7.74,0,0,0,61.43,76.924ZM41,85.637l-.79-5.529a17.951,17.951,0,0,0-2.143-6.283h9.419v8.863ZM20.551,41.285l1.122-2.242a1.54,1.54,0,0,1,1.387-.857h8.93a1.549,1.549,0,1,1,0,3.1ZM73.825,5.648A13.945,13.945,0,1,1,59.88,19.594,13.961,13.961,0,0,1,73.825,5.648ZM56.86,21.143a17.039,17.039,0,0,0,33.912.256,4.638,4.638,0,0,1,3.2,4.393V58.331H29.938a6.424,6.424,0,0,0,.26-2.482L29.052,44.384H31.99a4.648,4.648,0,0,0,0-9.3H28.734a7.693,7.693,0,0,0-1.263-2.868,16.916,16.916,0,0,0,7.3-11.076ZM4.1,18.044A13.945,13.945,0,1,1,25.138,30.016a7.675,7.675,0,0,0-3.993-1.125h-6.2A10.778,10.778,0,0,0,10.6,29.8,13.951,13.951,0,0,1,4.1,18.044ZM7.2,39.737a7.756,7.756,0,0,1,7.747-7.747h6.2a4.65,4.65,0,0,1,4.38,3.1H23.058A4.624,4.624,0,0,0,18.9,37.656l-1.814,3.629H7.2Zm0,8.793V44.384h4.247A7.1,7.1,0,0,0,10.3,48.259a7.21,7.21,0,0,0,2.1,5.064l1,1v4.715A12.017,12.017,0,0,1,7.2,48.53Zm7.388,2.6a4.092,4.092,0,0,1-1.19-2.873,4.034,4.034,0,0,1,1.19-2.873l1-1H25.939L27.116,56.16a3.37,3.37,0,0,1-.975,2.73,3.412,3.412,0,0,1-2.394.992H19.594v3.1h3.1v1.57c-.15,0-.3-.022-.448-.022a18.027,18.027,0,0,0-5.75.95V53.041ZM42.87,93.1a9.74,9.74,0,0,1-13.358-6.069l-2.234-7.448-2.969.889,2.234,7.448a12.775,12.775,0,0,0,3.965,6.052H7.2V82.675a15.046,15.046,0,0,1,29.941-2.127l.919,6.426L36,87.91l1.283,2.82,9.174-4.171,1.814,4.081Zm12.608-5.732-4.387,1.994-1.814-4.083,4.3-1.957a2.322,2.322,0,0,1,.978-.2,2.22,2.22,0,0,1,.919,4.242Zm9.051-1.144H59.8a5.157,5.157,0,0,0,.081-.877A5.3,5.3,0,0,0,56.447,80.4a7.292,7.292,0,0,1,2.25-.372H61.43a4.654,4.654,0,0,1,4.648,4.648,1.55,1.55,0,0,1-1.549,1.549Zm18.594-6.2h9.3a1.549,1.549,0,1,1,0,3.1h-23.4a7.729,7.729,0,0,0-2.942-4.608V73.826h12.4v1.549a4.654,4.654,0,0,0,4.648,4.648Z" transform="translate(-1 -1)"/>
        <path id="Path_332" data-name="Path 332" d="M57,42h3.1v3.1H57Z" transform="translate(29.771 21.529)"/>
        <path id="Path_333" data-name="Path 333" d="M53,42h3.1v3.1H53Z" transform="translate(27.573 21.529)"/>
        <path id="Path_334" data-name="Path 334" d="M49,42h3.1v3.1H49Z" transform="translate(25.375 21.529)"/>
        <path id="Path_335" data-name="Path 335" d="M42,8h3.1v3.1H42Z" transform="translate(21.529 2.846)" fill="#4a58b2"/>
        <path id="Path_336" data-name="Path 336" d="M46,8H58.4v3.1H46Z" transform="translate(23.727 2.846)" fill="#4a58b2"/>
        <path id="Path_337" data-name="Path 337" d="M42,12h3.1v3.1H42Z" transform="translate(21.529 5.044)" fill="#4a58b2"/>
        <path id="Path_338" data-name="Path 338" d="M46,12H58.4v3.1H46Z" transform="translate(23.727 5.044)" fill="#4a58b2"/>
        <path id="Path_339" data-name="Path 339" d="M42,16h3.1v3.1H42Z" transform="translate(21.529 7.242)" fill="#4a58b2"/>
        <path id="Path_340" data-name="Path 340" d="M46,16H58.4v3.1H46Z" transform="translate(23.727 7.242)" fill="#4a58b2"/>
        <path id="Path_341" data-name="Path 341" d="M41.495,28H26V40.4H41.495Zm-3.1,9.3H29.1V31.1h9.3Z" transform="translate(12.737 13.836)" fill="#4a58b2"/>
        <path id="Path_342" data-name="Path 342" d="M26,24H41.495v3.1H26Z" transform="translate(12.737 11.638)" fill="#4a58b2"/>
        <path id="Path_343" data-name="Path 343" d="M26,20H41.495v3.1H26Z" transform="translate(12.737 9.44)" fill="#4a58b2"/>
        <path id="Path_344" data-name="Path 344" d="M26,16H41.495v3.1H26Z" transform="translate(12.737 7.242)" fill="#4a58b2"/>
        <path id="Path_345" data-name="Path 345" d="M38,34h3.1v3.1H38Z" transform="translate(19.331 17.133)" fill="#4a58b2"/>
        <path id="Path_346" data-name="Path 346" d="M42,34H68.341v3.1H42Z" transform="translate(21.529 17.133)" fill="#4a58b2"/>
        <path id="Path_347" data-name="Path 347" d="M38,30H70.539v3.1H38Z" transform="translate(19.331 14.935)" fill="#4a58b2"/>
        <path id="Path_348" data-name="Path 348" d="M38,26H70.539v3.1H38Z" transform="translate(19.331 12.737)" fill="#4a58b2"/>
      </g>
    </g>
  </g>
</svg>
