<svg xmlns="http://www.w3.org/2000/svg" width="150" height="150" viewBox="0 0 150 150">
  <g id="Group_349" data-name="Group 349" transform="translate(-1265 -1845)">
    <circle id="Ellipse_8" data-name="Ellipse 8" cx="75" cy="75" r="75" transform="translate(1265 1845)" fill="#fff"/>
    <g id="github_1_" data-name="github (1)" transform="translate(1299 1879)">
      <path id="Path_383" data-name="Path 383" d="M83.273,10H16.484A6.485,6.485,0,0,0,10,16.484V83.273a6.485,6.485,0,0,0,6.484,6.484H83.273a6.485,6.485,0,0,0,6.484-6.484V16.484A6.485,6.485,0,0,0,83.273,10Zm0,0" transform="translate(-8.379 -8.379)" fill="#4a58b2"/>
      <path id="Path_389" data-name="Path 389" d="M13.082,21.945c-7.594,18.381,8.512,40.5,10.456,40.5h6.934c1.944,0,12.547-27.3,13.1-27.076L40.158,20.734S13.082,19.506,13.082,21.945Z" transform="translate(14.136 7.184)" fill="#fdf53f"/>
      <path id="Path_384" data-name="Path 384" d="M121.938,116a25.941,25.941,0,0,1,7.33,50.825,3.239,3.239,0,0,1-.846-2.192v-6.455c.005-2.968-1.17-3.751-2.028-5.061,13.554-2.023,13.981-14.486,9.247-20.092a.429.429,0,0,1-.109-.336c.726-2.195.633-7.029-1.029-6.953-2.276.106-4.092,1.388-6.2,2.644a.557.557,0,0,1-.475.081,21.126,21.126,0,0,0-11.772,0,.557.557,0,0,1-.475-.081c-2.112-1.256-3.928-2.539-6.2-2.644-1.662-.076-1.755,4.758-1.029,6.953a.429.429,0,0,1-.109.336c-4.733,5.606-4.307,18.069,9.247,20.092-.858,1.31-2.033,2.093-2.028,5.061v6.455a3.239,3.239,0,0,1-.846,2.192A25.941,25.941,0,0,1,121.938,116Zm0,0" transform="translate(-80.438 -97.195)" fill="#fff"/>
      <path id="Path_385" data-name="Path 385" d="M369.242,44.621A1.621,1.621,0,1,1,367.621,43,1.621,1.621,0,0,1,369.242,44.621Zm0,0" transform="translate(-306.668 -36.029)"/>
      <path id="Path_386" data-name="Path 386" d="M113.559,106a27.559,27.559,0,1,0,27.559,27.559A27.59,27.59,0,0,0,113.559,106Zm-4.992,51.359a5.043,5.043,0,0,0,.129-1.106V149.8c0-2.364.82-2.731,1.763-4.171a1.62,1.62,0,0,0-1.116-2.491c-6.431-.96-8.955-4.275-9.94-6.886a11.006,11.006,0,0,1,1.689-10.552,2.016,2.016,0,0,0,.413-1.895,9.764,9.764,0,0,1-.109-4.778,11.85,11.85,0,0,1,4.189,1.9c.861.523,1.472,1.006,2.513.726a19.527,19.527,0,0,1,10.927,0c1.035.279,1.667-.214,2.51-.726a11.846,11.846,0,0,1,4.19-1.9,9.757,9.757,0,0,1-.1,4.765,2.021,2.021,0,0,0,.408,1.908,11,11,0,0,1,1.689,10.552c-.985,2.611-3.509,5.926-9.939,6.886a1.622,1.622,0,0,0-1.117,2.492c.941,1.437,1.767,1.8,1.764,4.173v6.464a5.01,5.01,0,0,0,.127,1.1,24.426,24.426,0,0,1-9.983,0Zm13.115-.876a1.83,1.83,0,0,1-.018-.23V149.8a7.785,7.785,0,0,0-.912-3.978c4.92-1.33,8.426-4.265,10-8.431a14.248,14.248,0,0,0-1.856-13.3c.5-2.216.489-5.715-.717-7.306a2.485,2.485,0,0,0-2.126-1.045c-2.535.117-4.488,1.382-6.616,2.665a25.163,25.163,0,0,0-5.854-.778h-.039a25.112,25.112,0,0,0-5.854.778c-2.111-1.273-4.07-2.548-6.617-2.665a2.484,2.484,0,0,0-2.126,1.045c-1.2,1.589-1.221,5.08-.717,7.305a14.251,14.251,0,0,0-1.857,13.3c1.571,4.166,5.077,7.1,10,8.43a7.172,7.172,0,0,0-.862,2.888,3.579,3.579,0,0,1-4.73-1.618c-1.289-2.168-3.472-3.916-5.975-3.7a1.621,1.621,0,0,0,.279,3.231c1.159-.1,2.3,1.106,2.908,2.125a6.678,6.678,0,0,0,7.467,3.336v4.16a1.84,1.84,0,0,1-.018.239,24.316,24.316,0,1,1,16.247,0Zm0,0" transform="translate(-72.059 -88.816)"/>
      <path id="Path_387" data-name="Path 387" d="M74.895,0H8.105A8.115,8.115,0,0,0,0,8.105V74.895A8.115,8.115,0,0,0,8.105,83H74.895A8.115,8.115,0,0,0,83,74.895V8.105A8.115,8.115,0,0,0,74.895,0Zm4.863,74.895a4.869,4.869,0,0,1-4.863,4.863H8.105a4.869,4.869,0,0,1-4.863-4.863V8.105A4.869,4.869,0,0,1,8.105,3.242H74.895a4.869,4.869,0,0,1,4.863,4.863Zm0,0"/>
      <path id="Path_388" data-name="Path 388" d="M127.621,46.242h32.422a1.621,1.621,0,0,0,0-3.242H127.621a1.621,1.621,0,0,0,0,3.242Zm0,0" transform="translate(-105.574 -36.029)"/>
    </g>
  </g>
</svg>
