<svg xmlns="http://www.w3.org/2000/svg" width="150" height="150" viewBox="0 0 150 150">
  <g id="Group_350" data-name="Group 350" transform="translate(-503 -1842)">
    <circle id="Ellipse_9" data-name="Ellipse 9" cx="75" cy="75" r="75" transform="translate(503 1842)" fill="#fff"/>
    <g id="meeting_1_" data-name="meeting (1)" transform="translate(533 1870)">
      <g id="Group_113" data-name="Group 113" transform="translate(1.819 1.819)">
        <path id="Path_362" data-name="Path 362" d="M223.278,24.555a7.277,7.277,0,1,0-7.132-8.733,7.29,7.29,0,0,0,2.765,7.277A7.245,7.245,0,0,0,223.278,24.555Z" transform="translate(-178.523 -10.001)" fill="#99a1d8" fill-rule="evenodd"/>
        <path id="Path_363" data-name="Path 363" d="M186.188,49.279A7.288,7.288,0,0,1,183.423,42h-3.785A3.649,3.649,0,0,0,176,45.641V49.28h10.188Z" transform="translate(-145.799 -36.18)" fill="#4a58b2" fill-rule="evenodd"/>
        <path id="Path_364" data-name="Path 364" d="M282.911,43.456A7.266,7.266,0,0,1,280,49.279h10.188V45.64A3.65,3.65,0,0,0,286.55,42h-3.784A7.292,7.292,0,0,1,282.911,43.456Z" transform="translate(-230.878 -36.179)" fill="#4a58b2" fill-rule="evenodd"/>
        <path id="Path_365" data-name="Path 365" d="M116.535,126.711a4.709,4.709,0,1,0-9.418,0v2.355a4.709,4.709,0,0,0,9.418,0Z" transform="translate(-89.448 -101.626)" fill="#ffdcd5" fill-rule="evenodd"/>
        <path id="Path_366" data-name="Path 366" d="M99.447,178.088a4.692,4.692,0,0,1-7,0,8.266,8.266,0,0,0-4.74,7.454V187.9h16.481v-2.354A8.266,8.266,0,0,0,99.447,178.088Z" transform="translate(-73.568 -147.508)" fill="#4a58b2" fill-rule="evenodd"/>
        <path id="Path_367" data-name="Path 367" d="M116.535,276.711a4.709,4.709,0,1,0-9.418,0v2.354a4.709,4.709,0,0,0,9.418,0Z" transform="translate(-89.448 -224.336)" fill="#ffdcd5" fill-rule="evenodd"/>
        <path id="Path_368" data-name="Path 368" d="M99.447,328.087a4.692,4.692,0,0,1-7,0,8.266,8.266,0,0,0-4.74,7.454V337.9h16.481v-2.354A8.266,8.266,0,0,0,99.447,328.087Z" transform="translate(-73.568 -270.217)" fill="#4a58b2" fill-rule="evenodd"/>
        <path id="Path_369" data-name="Path 369" d="M362.536,126.711a4.709,4.709,0,0,0-9.418,0v2.355a4.709,4.709,0,0,0,9.418,0Z" transform="translate(-290.694 -101.626)" fill="#ffdcd5" fill-rule="evenodd"/>
        <path id="Path_370" data-name="Path 370" d="M345.449,178.088a4.692,4.692,0,0,1-7,0,8.267,8.267,0,0,0-4.74,7.454V187.9h16.481v-2.354A8.267,8.267,0,0,0,345.449,178.088Z" transform="translate(-274.814 -147.508)" fill="#4a58b2" fill-rule="evenodd"/>
        <path id="Path_371" data-name="Path 371" d="M362.536,276.711a4.709,4.709,0,0,0-9.418,0v2.354a4.709,4.709,0,0,0,9.418,0Z" transform="translate(-290.694 -224.336)" fill="#ffdcd5" fill-rule="evenodd"/>
        <path id="Path_372" data-name="Path 372" d="M345.449,328.087a4.692,4.692,0,0,1-7,0,8.267,8.267,0,0,0-4.74,7.454V337.9h16.481v-2.354A8.267,8.267,0,0,0,345.449,328.087Z" transform="translate(-274.814 -270.217)" fill="#4a58b2" fill-rule="evenodd"/>
        <path id="Path_373" data-name="Path 373" d="M54.756,382H10v3.639a3.649,3.649,0,0,0,3.639,3.639H85.374V382H54.756Z" transform="translate(-10.001 -314.323)" fill="#8481e2" fill-rule="evenodd"/>
        <path id="Path_374" data-name="Path 374" d="M424.3,382v7.277h10.5a3.649,3.649,0,0,0,3.639-3.639V382H424.3Z" transform="translate(-348.923 -314.323)" fill="#99a1d8" fill-rule="evenodd"/>
        <path id="Path_375" data-name="Path 375" d="M40.617,109.292H54.755V83.458A7.244,7.244,0,0,1,50.388,82H13.638A3.649,3.649,0,0,0,10,85.642v23.651H24.136v-2.354a8.266,8.266,0,0,1,4.739-7.454,4.689,4.689,0,0,1-1.208-3.14V93.989a4.709,4.709,0,1,1,9.418,0v2.354a4.687,4.687,0,0,1-1.208,3.14,8.266,8.266,0,0,1,4.739,7.454v2.354Z" transform="translate(-9.999 -68.904)" fill="#fdf53f" fill-rule="evenodd"/>
        <path id="Path_376" data-name="Path 376" d="M54.756,232H10v27.289H24.138v-2.354a8.266,8.266,0,0,1,4.739-7.454,4.689,4.689,0,0,1-1.208-3.141v-2.355a4.709,4.709,0,1,1,9.418,0v2.354a4.687,4.687,0,0,1-1.208,3.141,8.266,8.266,0,0,1,4.739,7.454v2.354H54.756V232Z" transform="translate(-10.001 -191.613)" fill="#99a1d8" fill-rule="evenodd"/>
        <path id="Path_377" data-name="Path 377" d="M256,83.457v25.835h14.137v-2.354a8.266,8.266,0,0,1,4.739-7.454,4.688,4.688,0,0,1-1.208-3.14V93.988a4.709,4.709,0,0,1,9.418,0v2.354a4.687,4.687,0,0,1-1.208,3.14,8.266,8.266,0,0,1,4.739,7.454v2.354h14.137V85.641A3.649,3.649,0,0,0,297.118,82h-36.75A7.244,7.244,0,0,1,256,83.457Z" transform="translate(-211.246 -68.903)" fill="#99a1d8" fill-rule="evenodd"/>
        <path id="Path_378" data-name="Path 378" d="M270.138,232H256v27.289h14.137v-2.354a8.266,8.266,0,0,1,4.739-7.454,4.689,4.689,0,0,1-1.208-3.141v-2.355a4.709,4.709,0,1,1,9.418,0v2.354a4.688,4.688,0,0,1-1.208,3.141,8.266,8.266,0,0,1,4.739,7.454v2.354h14.137V232H270.138Z" transform="translate(-211.246 -191.613)" fill="#fdf53f" fill-rule="evenodd"/>
        <path id="Path_379" data-name="Path 379" d="M189.131,422h18.43l3.6,14.554H185.521Z" transform="translate(-153.588 -347.047)" fill="#4a58b2" fill-rule="evenodd"/>
      </g>
      <g id="Group_114" data-name="Group 114" transform="translate(0)">
        <path id="Path_380" data-name="Path 380" d="M87.691,13.1H62.949V11.28a5.464,5.464,0,0,0-5.458-5.458H55.059a9.093,9.093,0,0,0-16.969,0H35.659A5.464,5.464,0,0,0,30.2,11.28V13.1H5.458A5.464,5.464,0,0,0,0,18.557V73.137a5.464,5.464,0,0,0,5.458,5.458H35.04L32.332,89.51H30.2a1.819,1.819,0,0,0,0,3.639H62.949a1.819,1.819,0,0,0,0-3.639H60.823L58.11,78.595H87.691a5.464,5.464,0,0,0,5.458-5.458V18.557A5.464,5.464,0,0,0,87.691,13.1ZM71.842,56.549a2.89,2.89,0,0,1-5.779,0V54.195a2.89,2.89,0,0,1,5.779,0Zm-6.6,5.368a6.509,6.509,0,0,0,7.42,0,6.385,6.385,0,0,1,2.71,5.229v.535H62.531v-.535a6.48,6.48,0,0,1,2.713-5.226Zm9.723-2.83a6.491,6.491,0,0,0,.514-2.538V54.195a6.528,6.528,0,0,0-13.057,0v2.354a6.494,6.494,0,0,0,.514,2.538,10,10,0,0,0-4.045,8.057v.535h-10.5v-9.1a1.819,1.819,0,0,0-3.639,0v9.1h-10.5v-.535a10,10,0,0,0-4.045-8.057,6.491,6.491,0,0,0,.514-2.538V54.195a6.528,6.528,0,1,0-13.056,0v2.354a6.494,6.494,0,0,0,.514,2.538,10,10,0,0,0-4.045,8.057v.535H3.639V44.027H89.51V67.679h-10.5v-.535A10,10,0,0,0,74.967,59.087Zm-47.88-2.538a2.89,2.89,0,1,1-5.779,0V54.195a2.89,2.89,0,1,1,5.779,0Zm-6.6,5.368a6.509,6.509,0,0,0,7.42,0,6.384,6.384,0,0,1,2.71,5.229v.535H17.776v-.535A6.481,6.481,0,0,1,20.488,61.917Zm6.6-32.658a2.89,2.89,0,0,1-5.779,0V26.9a2.89,2.89,0,0,1,5.779,0Zm-6.6,5.368a6.509,6.509,0,0,0,7.42,0,6.384,6.384,0,0,1,2.71,5.229v.535H17.776v-.535a6.48,6.48,0,0,1,2.713-5.227Zm51.353-5.368a2.89,2.89,0,0,1-5.779,0V26.9a2.89,2.89,0,0,1,5.779,0Zm-6.6,5.368a6.509,6.509,0,0,0,7.42,0,6.385,6.385,0,0,1,2.71,5.229v.535H62.531v-.535a6.481,6.481,0,0,1,2.713-5.226ZM89.51,18.557V40.389h-10.5v-.535A10,10,0,0,0,74.967,31.8a6.491,6.491,0,0,0,.514-2.538V26.9a6.528,6.528,0,0,0-13.057,0v2.355a6.494,6.494,0,0,0,.514,2.538,10,10,0,0,0-4.045,8.057v.535h-10.5V18.01A9.043,9.043,0,0,0,51.5,16.738H87.691A1.821,1.821,0,0,1,89.51,18.557ZM59.31,11.28V13.1H54.741a9.031,9.031,0,0,0,.921-3.639h1.829A1.821,1.821,0,0,1,59.31,11.28ZM46.575,3.639A5.458,5.458,0,1,1,41.117,9.1,5.464,5.464,0,0,1,46.575,3.639ZM33.839,13.1V11.28a1.821,1.821,0,0,1,1.819-1.819h1.829a9.03,9.03,0,0,0,.921,3.639Zm-30.2,5.458a1.821,1.821,0,0,1,1.819-1.819H41.649a9.042,9.042,0,0,0,3.106,1.272V40.389h-10.5v-.535A10,10,0,0,0,30.212,31.8a6.491,6.491,0,0,0,.514-2.538V26.9a6.528,6.528,0,0,0-13.056,0v2.355a6.494,6.494,0,0,0,.514,2.538,10,10,0,0,0-4.045,8.057v.535H3.639Zm0,54.579V71.317H75.373v3.639H5.458a1.821,1.821,0,0,1-1.819-1.819ZM57.073,89.51H36.081l2.708-10.916H54.361ZM87.691,74.956H79.012V71.317h10.5v1.819a1.821,1.821,0,0,1-1.819,1.819Z" transform="translate(0)"/>
        <path id="Path_381" data-name="Path 381" d="M247.821,43.639a1.819,1.819,0,1,0,0-3.639h0a1.819,1.819,0,0,0,0,3.639Z" transform="translate(-201.246 -32.723)"/>
        <path id="Path_382" data-name="Path 382" d="M247.82,267a1.82,1.82,0,1,0,1.819,1.82h0A1.819,1.819,0,0,0,247.82,267Z" transform="translate(-201.246 -218.426)"/>
      </g>
    </g>
  </g>
</svg>
